<svg width="870" height="418" viewBox="0 0 870 418" fill="none" xmlns="http://www.w3.org/2000/svg">
<rect x="0.5" y="0.5" width="869" height="417" rx="9.5" fill="white"/>
<rect x="0.5" y="0.5" width="869" height="417" rx="9.5" stroke="#E1E1E1"/>
<g clip-path="url(#clip0_1_1379)">
<rect x="611" y="34" width="16" height="16" rx="3" fill="#1873EB"/>
<path d="M642.201 47H640.561V42.4951H635.953V47H634.319V37.0059H635.953V41.0938H640.561V37.0059H642.201V47ZM644.833 47V37.0059H646.467V47H644.833ZM654.875 44.2861C654.875 45.1748 654.554 45.8721 653.911 46.3779C653.269 46.8838 652.382 47.1367 651.252 47.1367C650.122 47.1367 649.197 46.9613 648.477 46.6104V45.0654C648.932 45.2796 649.415 45.4482 649.926 45.5713C650.441 45.6943 650.919 45.7559 651.361 45.7559C652.008 45.7559 652.485 45.6328 652.79 45.3867C653.1 45.1406 653.255 44.8102 653.255 44.3955C653.255 44.0218 653.114 43.7051 652.831 43.4453C652.549 43.1855 651.965 42.8779 651.081 42.5225C650.17 42.1533 649.527 41.7318 649.153 41.2578C648.78 40.7839 648.593 40.2142 648.593 39.5488C648.593 38.7148 648.889 38.0586 649.481 37.5801C650.074 37.1016 650.869 36.8623 651.867 36.8623C652.824 36.8623 653.777 37.0719 654.725 37.4912L654.205 38.8242C653.316 38.4505 652.523 38.2637 651.826 38.2637C651.298 38.2637 650.896 38.3799 650.623 38.6123C650.35 38.8402 650.213 39.1432 650.213 39.5215C650.213 39.7812 650.268 40.0046 650.377 40.1914C650.486 40.3737 650.666 40.5469 650.917 40.7109C651.168 40.875 651.619 41.0915 652.271 41.3604C653.004 41.6657 653.542 41.9505 653.884 42.2148C654.226 42.4792 654.476 42.7777 654.636 43.1104C654.795 43.443 654.875 43.835 654.875 44.2861ZM660.262 47H658.628V38.4072H655.688V37.0059H663.201V38.4072H660.262V47ZM673.612 41.9893C673.612 43.6162 673.204 44.8809 672.389 45.7832C671.577 46.6855 670.427 47.1367 668.937 47.1367C667.428 47.1367 666.268 46.6901 665.457 45.7969C664.65 44.8991 664.247 43.6253 664.247 41.9756C664.247 40.3258 664.653 39.0589 665.464 38.1748C666.28 37.2907 667.442 36.8486 668.95 36.8486C670.436 36.8486 671.584 37.2975 672.396 38.1953C673.207 39.0931 673.612 40.3577 673.612 41.9893ZM665.983 41.9893C665.983 43.2197 666.232 44.154 666.729 44.792C667.225 45.4255 667.961 45.7422 668.937 45.7422C669.907 45.7422 670.639 45.4277 671.131 44.7988C671.628 44.1699 671.876 43.2334 671.876 41.9893C671.876 40.7633 671.63 39.8337 671.138 39.2002C670.65 38.5667 669.921 38.25 668.95 38.25C667.97 38.25 667.23 38.5667 666.729 39.2002C666.232 39.8337 665.983 40.7633 665.983 41.9893ZM677.393 41.6543H678.527C679.288 41.6543 679.84 41.513 680.182 41.2305C680.523 40.9479 680.694 40.5286 680.694 39.9727C680.694 39.4076 680.51 39.002 680.141 38.7559C679.771 38.5098 679.215 38.3867 678.473 38.3867H677.393V41.6543ZM677.393 43.0078V47H675.759V37.0059H678.582C679.872 37.0059 680.826 37.2474 681.446 37.7305C682.066 38.2135 682.376 38.9427 682.376 39.918C682.376 41.1621 681.729 42.0485 680.435 42.5771L683.258 47H681.398L679.006 43.0078H677.393ZM684.714 47V37.0059H686.348V47H684.714ZM693.245 38.2637C692.306 38.2637 691.568 38.5964 691.03 39.2617C690.493 39.9271 690.224 40.8454 690.224 42.0166C690.224 43.2425 690.481 44.1699 690.996 44.7988C691.516 45.4277 692.265 45.7422 693.245 45.7422C693.669 45.7422 694.079 45.7012 694.476 45.6191C694.872 45.5326 695.285 45.4232 695.713 45.291V46.6924C694.929 46.9886 694.04 47.1367 693.047 47.1367C691.584 47.1367 690.461 46.6947 689.677 45.8105C688.893 44.9219 688.501 43.6527 688.501 42.0029C688.501 40.9639 688.69 40.0547 689.068 39.2754C689.451 38.4961 690.003 37.8991 690.723 37.4844C691.443 37.0697 692.288 36.8623 693.259 36.8623C694.28 36.8623 695.223 37.0765 696.089 37.5049L695.501 38.8652C695.164 38.7057 694.806 38.5667 694.428 38.4482C694.054 38.3252 693.66 38.2637 693.245 38.2637ZM704.066 47L703.068 44.2246H699.247L698.27 47H696.547L700.286 36.9648H702.063L705.803 47H704.066ZM702.638 42.8164L701.701 40.0957C701.633 39.9134 701.537 39.6263 701.414 39.2344C701.296 38.8424 701.214 38.5553 701.168 38.373C701.045 38.9336 700.865 39.5465 700.628 40.2119L699.726 42.8164H702.638ZM707.122 47V37.0059H708.756V45.5986H712.987V47H707.122Z" fill="#4F4F4F"/>
</g>
<g clip-path="url(#clip1_1_1379)">
<rect x="730" y="34" width="16" height="16" rx="3" fill="#9C4FFF"/>
<path d="M754.939 47H753.319V37.0059H758.959V38.3867H754.939V41.5107H758.706V42.8984H754.939V47ZM769.644 41.9893C769.644 43.6162 769.236 44.8809 768.42 45.7832C767.609 46.6855 766.458 47.1367 764.968 47.1367C763.459 47.1367 762.299 46.6901 761.488 45.7969C760.682 44.8991 760.278 43.6253 760.278 41.9756C760.278 40.3258 760.684 39.0589 761.495 38.1748C762.311 37.2907 763.473 36.8486 764.981 36.8486C766.467 36.8486 767.616 37.2975 768.427 38.1953C769.238 39.0931 769.644 40.3577 769.644 41.9893ZM762.015 41.9893C762.015 43.2197 762.263 44.154 762.76 44.792C763.257 45.4255 763.993 45.7422 764.968 45.7422C765.938 45.7422 766.67 45.4277 767.162 44.7988C767.659 44.1699 767.907 43.2334 767.907 41.9893C767.907 40.7633 767.661 39.8337 767.169 39.2002C766.681 38.5667 765.952 38.25 764.981 38.25C764.002 38.25 763.261 38.5667 762.76 39.2002C762.263 39.8337 762.015 40.7633 762.015 41.9893ZM773.424 41.6543H774.559C775.32 41.6543 775.871 41.513 776.213 41.2305C776.555 40.9479 776.726 40.5286 776.726 39.9727C776.726 39.4076 776.541 39.002 776.172 38.7559C775.803 38.5098 775.247 38.3867 774.504 38.3867H773.424V41.6543ZM773.424 43.0078V47H771.79V37.0059H774.613C775.903 37.0059 776.858 37.2474 777.478 37.7305C778.097 38.2135 778.407 38.9427 778.407 39.918C778.407 41.1621 777.76 42.0485 776.466 42.5771L779.289 47H777.43L775.037 43.0078H773.424ZM786.398 47H780.745V37.0059H786.398V38.3867H782.379V41.1074H786.146V42.4746H782.379V45.6123H786.398V47ZM792.817 38.2637C791.879 38.2637 791.14 38.5964 790.603 39.2617C790.065 39.9271 789.796 40.8454 789.796 42.0166C789.796 43.2425 790.053 44.1699 790.568 44.7988C791.088 45.4277 791.838 45.7422 792.817 45.7422C793.241 45.7422 793.651 45.7012 794.048 45.6191C794.444 45.5326 794.857 45.4232 795.285 45.291V46.6924C794.501 46.9886 793.613 47.1367 792.619 47.1367C791.156 47.1367 790.033 46.6947 789.249 45.8105C788.465 44.9219 788.073 43.6527 788.073 42.0029C788.073 40.9639 788.262 40.0547 788.641 39.2754C789.023 38.4961 789.575 37.8991 790.295 37.4844C791.015 37.0697 791.86 36.8623 792.831 36.8623C793.852 36.8623 794.795 37.0765 795.661 37.5049L795.073 38.8652C794.736 38.7057 794.378 38.5667 794 38.4482C793.626 38.3252 793.232 38.2637 792.817 38.2637ZM803.639 47L802.641 44.2246H798.819L797.842 47H796.119L799.858 36.9648H801.636L805.375 47H803.639ZM802.21 42.8164L801.273 40.0957C801.205 39.9134 801.109 39.6263 800.986 39.2344C800.868 38.8424 800.786 38.5553 800.74 38.373C800.617 38.9336 800.437 39.5465 800.2 40.2119L799.298 42.8164H802.21ZM812.457 44.2861C812.457 45.1748 812.136 45.8721 811.493 46.3779C810.851 46.8838 809.964 47.1367 808.834 47.1367C807.704 47.1367 806.779 46.9613 806.059 46.6104V45.0654C806.514 45.2796 806.997 45.4482 807.508 45.5713C808.023 45.6943 808.501 45.7559 808.943 45.7559C809.59 45.7559 810.067 45.6328 810.372 45.3867C810.682 45.1406 810.837 44.8102 810.837 44.3955C810.837 44.0218 810.696 43.7051 810.413 43.4453C810.131 43.1855 809.547 42.8779 808.663 42.5225C807.752 42.1533 807.109 41.7318 806.735 41.2578C806.362 40.7839 806.175 40.2142 806.175 39.5488C806.175 38.7148 806.471 38.0586 807.063 37.5801C807.656 37.1016 808.451 36.8623 809.449 36.8623C810.406 36.8623 811.359 37.0719 812.307 37.4912L811.787 38.8242C810.898 38.4505 810.105 38.2637 809.408 38.2637C808.88 38.2637 808.479 38.3799 808.205 38.6123C807.932 38.8402 807.795 39.1432 807.795 39.5215C807.795 39.7812 807.85 40.0046 807.959 40.1914C808.068 40.3737 808.248 40.5469 808.499 40.7109C808.75 40.875 809.201 41.0915 809.853 41.3604C810.586 41.6657 811.124 41.9505 811.466 42.2148C811.808 42.4792 812.058 42.7777 812.218 43.1104C812.377 43.443 812.457 43.835 812.457 44.2861ZM817.844 47H816.21V38.4072H813.271V37.0059H820.783V38.4072H817.844V47ZM827.975 47H822.321V37.0059H827.975V38.3867H823.955V41.1074H827.722V42.4746H823.955V45.6123H827.975V47ZM838.27 41.9072C838.27 43.557 837.812 44.8193 836.896 45.6943C835.979 46.5648 834.66 47 832.938 47H830.142V37.0059H833.231C834.822 37.0059 836.059 37.4342 836.943 38.291C837.827 39.1478 838.27 40.3532 838.27 41.9072ZM836.547 41.9619C836.547 39.5693 835.428 38.373 833.19 38.373H831.775V45.626H832.938C835.344 45.626 836.547 44.4046 836.547 41.9619Z" fill="#4F4F4F"/>
</g>
<path d="M33.4219 74.3105C34.2031 74.3105 34.8223 74.4922 35.2793 74.8555C35.7363 75.2188 35.9648 75.7207 35.9648 76.3613C35.9648 76.7832 35.834 77.168 35.5723 77.5156C35.3105 77.8633 34.8926 78.1797 34.3184 78.4648C35.0137 78.7969 35.5078 79.1465 35.8008 79.5137C36.0938 79.877 36.2402 80.2988 36.2402 80.7793C36.2402 81.4902 35.9922 82.0586 35.4961 82.4844C35 82.9062 34.3203 83.1172 33.457 83.1172C32.543 83.1172 31.8398 82.918 31.3477 82.5195C30.8555 82.1172 30.6094 81.5488 30.6094 80.8145C30.6094 79.834 31.207 79.0703 32.4023 78.5234C31.8633 78.2188 31.4766 77.8906 31.2422 77.5391C31.0078 77.1836 30.8906 76.7871 30.8906 76.3496C30.8906 75.7285 31.1191 75.2344 31.5762 74.8672C32.0371 74.4961 32.6523 74.3105 33.4219 74.3105ZM31.5703 80.8379C31.5703 81.3066 31.7324 81.6719 32.0566 81.9336C32.3848 82.1953 32.8438 82.3262 33.4336 82.3262C34.0156 82.3262 34.4688 82.1895 34.793 81.916C35.1172 81.6426 35.2793 81.2676 35.2793 80.791C35.2793 80.4121 35.127 80.0762 34.8223 79.7832C34.5176 79.4863 33.9863 79.1992 33.2285 78.9219C32.6465 79.1719 32.2246 79.4492 31.9629 79.7539C31.7012 80.0547 31.5703 80.416 31.5703 80.8379ZM33.4102 75.1016C32.9219 75.1016 32.5391 75.2188 32.2617 75.4531C31.9844 75.6875 31.8457 76 31.8457 76.3906C31.8457 76.75 31.9609 77.0586 32.1914 77.3164C32.4219 77.5742 32.8477 77.832 33.4688 78.0898C34.0273 77.8555 34.4219 77.6035 34.6523 77.334C34.8867 77.0645 35.0039 76.75 35.0039 76.3906C35.0039 75.9961 34.8613 75.6836 34.5762 75.4531C34.2949 75.2188 33.9062 75.1016 33.4102 75.1016ZM43.1309 78.7051C43.1309 80.1855 42.8965 81.291 42.4277 82.0215C41.9629 82.752 41.25 83.1172 40.2891 83.1172C39.3672 83.1172 38.666 82.7441 38.1855 81.998C37.7051 81.248 37.4648 80.1504 37.4648 78.7051C37.4648 77.2129 37.6973 76.1055 38.1621 75.3828C38.627 74.6602 39.3359 74.2988 40.2891 74.2988C41.2188 74.2988 41.9238 74.6758 42.4043 75.4297C42.8887 76.1836 43.1309 77.2754 43.1309 78.7051ZM38.4492 78.7051C38.4492 79.9512 38.5957 80.8594 38.8887 81.4297C39.1816 81.9961 39.6484 82.2793 40.2891 82.2793C40.9375 82.2793 41.4062 81.9922 41.6953 81.418C41.9883 80.8398 42.1348 79.9355 42.1348 78.7051C42.1348 77.4746 41.9883 76.5742 41.6953 76.0039C41.4062 75.4297 40.9375 75.1426 40.2891 75.1426C39.6484 75.1426 39.1816 75.4258 38.8887 75.9922C38.5957 76.5547 38.4492 77.459 38.4492 78.7051ZM49.998 78.7051C49.998 80.1855 49.7637 81.291 49.2949 82.0215C48.8301 82.752 48.1172 83.1172 47.1562 83.1172C46.2344 83.1172 45.5332 82.7441 45.0527 81.998C44.5723 81.248 44.332 80.1504 44.332 78.7051C44.332 77.2129 44.5645 76.1055 45.0293 75.3828C45.4941 74.6602 46.2031 74.2988 47.1562 74.2988C48.0859 74.2988 48.791 74.6758 49.2715 75.4297C49.7559 76.1836 49.998 77.2754 49.998 78.7051ZM45.3164 78.7051C45.3164 79.9512 45.4629 80.8594 45.7559 81.4297C46.0488 81.9961 46.5156 82.2793 47.1562 82.2793C47.8047 82.2793 48.2734 81.9922 48.5625 81.418C48.8555 80.8398 49.002 79.9355 49.002 78.7051C49.002 77.4746 48.8555 76.5742 48.5625 76.0039C48.2734 75.4297 47.8047 75.1426 47.1562 75.1426C46.5156 75.1426 46.0488 75.4258 45.7559 75.9922C45.4629 76.5547 45.3164 77.459 45.3164 78.7051ZM56.8652 78.7051C56.8652 80.1855 56.6309 81.291 56.1621 82.0215C55.6973 82.752 54.9844 83.1172 54.0234 83.1172C53.1016 83.1172 52.4004 82.7441 51.9199 81.998C51.4395 81.248 51.1992 80.1504 51.1992 78.7051C51.1992 77.2129 51.4316 76.1055 51.8965 75.3828C52.3613 74.6602 53.0703 74.2988 54.0234 74.2988C54.9531 74.2988 55.6582 74.6758 56.1387 75.4297C56.623 76.1836 56.8652 77.2754 56.8652 78.7051ZM52.1836 78.7051C52.1836 79.9512 52.3301 80.8594 52.623 81.4297C52.916 81.9961 53.3828 82.2793 54.0234 82.2793C54.6719 82.2793 55.1406 81.9922 55.4297 81.418C55.7227 80.8398 55.8691 79.9355 55.8691 78.7051C55.8691 77.4746 55.7227 76.5742 55.4297 76.0039C55.1406 75.4297 54.6719 75.1426 54.0234 75.1426C53.3828 75.1426 52.916 75.4258 52.623 75.9922C52.3301 76.5547 52.1836 77.459 52.1836 78.7051ZM63.7324 78.7051C63.7324 80.1855 63.498 81.291 63.0293 82.0215C62.5645 82.752 61.8516 83.1172 60.8906 83.1172C59.9688 83.1172 59.2676 82.7441 58.7871 81.998C58.3066 81.248 58.0664 80.1504 58.0664 78.7051C58.0664 77.2129 58.2988 76.1055 58.7637 75.3828C59.2285 74.6602 59.9375 74.2988 60.8906 74.2988C61.8203 74.2988 62.5254 74.6758 63.0059 75.4297C63.4902 76.1836 63.7324 77.2754 63.7324 78.7051ZM59.0508 78.7051C59.0508 79.9512 59.1973 80.8594 59.4902 81.4297C59.7832 81.9961 60.25 82.2793 60.8906 82.2793C61.5391 82.2793 62.0078 81.9922 62.2969 81.418C62.5898 80.8398 62.7363 79.9355 62.7363 78.7051C62.7363 77.4746 62.5898 76.5742 62.2969 76.0039C62.0078 75.4297 61.5391 75.1426 60.8906 75.1426C60.25 75.1426 59.7832 75.4258 59.4902 75.9922C59.1973 76.5547 59.0508 77.459 59.0508 78.7051Z" fill="black" fill-opacity="0.7"/>
<path d="M84 78.5H840" stroke="#D3D3D4"/>
<path d="M31.6699 130L35.2207 122.33H30.5508V121.434H36.252V122.213L32.748 130H31.6699ZM43.1309 125.705C43.1309 127.186 42.8965 128.291 42.4277 129.021C41.9629 129.752 41.25 130.117 40.2891 130.117C39.3672 130.117 38.666 129.744 38.1855 128.998C37.7051 128.248 37.4648 127.15 37.4648 125.705C37.4648 124.213 37.6973 123.105 38.1621 122.383C38.627 121.66 39.3359 121.299 40.2891 121.299C41.2188 121.299 41.9238 121.676 42.4043 122.43C42.8887 123.184 43.1309 124.275 43.1309 125.705ZM38.4492 125.705C38.4492 126.951 38.5957 127.859 38.8887 128.43C39.1816 128.996 39.6484 129.279 40.2891 129.279C40.9375 129.279 41.4062 128.992 41.6953 128.418C41.9883 127.84 42.1348 126.936 42.1348 125.705C42.1348 124.475 41.9883 123.574 41.6953 123.004C41.4062 122.43 40.9375 122.143 40.2891 122.143C39.6484 122.143 39.1816 122.426 38.8887 122.992C38.5957 123.555 38.4492 124.459 38.4492 125.705ZM49.998 125.705C49.998 127.186 49.7637 128.291 49.2949 129.021C48.8301 129.752 48.1172 130.117 47.1562 130.117C46.2344 130.117 45.5332 129.744 45.0527 128.998C44.5723 128.248 44.332 127.15 44.332 125.705C44.332 124.213 44.5645 123.105 45.0293 122.383C45.4941 121.66 46.2031 121.299 47.1562 121.299C48.0859 121.299 48.791 121.676 49.2715 122.43C49.7559 123.184 49.998 124.275 49.998 125.705ZM45.3164 125.705C45.3164 126.951 45.4629 127.859 45.7559 128.43C46.0488 128.996 46.5156 129.279 47.1562 129.279C47.8047 129.279 48.2734 128.992 48.5625 128.418C48.8555 127.84 49.002 126.936 49.002 125.705C49.002 124.475 48.8555 123.574 48.5625 123.004C48.2734 122.43 47.8047 122.143 47.1562 122.143C46.5156 122.143 46.0488 122.426 45.7559 122.992C45.4629 123.555 45.3164 124.459 45.3164 125.705ZM56.8652 125.705C56.8652 127.186 56.6309 128.291 56.1621 129.021C55.6973 129.752 54.9844 130.117 54.0234 130.117C53.1016 130.117 52.4004 129.744 51.9199 128.998C51.4395 128.248 51.1992 127.15 51.1992 125.705C51.1992 124.213 51.4316 123.105 51.8965 122.383C52.3613 121.66 53.0703 121.299 54.0234 121.299C54.9531 121.299 55.6582 121.676 56.1387 122.43C56.623 123.184 56.8652 124.275 56.8652 125.705ZM52.1836 125.705C52.1836 126.951 52.3301 127.859 52.623 128.43C52.916 128.996 53.3828 129.279 54.0234 129.279C54.6719 129.279 55.1406 128.992 55.4297 128.418C55.7227 127.84 55.8691 126.936 55.8691 125.705C55.8691 124.475 55.7227 123.574 55.4297 123.004C55.1406 122.43 54.6719 122.143 54.0234 122.143C53.3828 122.143 52.916 122.426 52.623 122.992C52.3301 123.555 52.1836 124.459 52.1836 125.705ZM63.7324 125.705C63.7324 127.186 63.498 128.291 63.0293 129.021C62.5645 129.752 61.8516 130.117 60.8906 130.117C59.9688 130.117 59.2676 129.744 58.7871 128.998C58.3066 128.248 58.0664 127.15 58.0664 125.705C58.0664 124.213 58.2988 123.105 58.7637 122.383C59.2285 121.66 59.9375 121.299 60.8906 121.299C61.8203 121.299 62.5254 121.676 63.0059 122.43C63.4902 123.184 63.7324 124.275 63.7324 125.705ZM59.0508 125.705C59.0508 126.951 59.1973 127.859 59.4902 128.43C59.7832 128.996 60.25 129.279 60.8906 129.279C61.5391 129.279 62.0078 128.992 62.2969 128.418C62.5898 127.84 62.7363 126.936 62.7363 125.705C62.7363 124.475 62.5898 123.574 62.2969 123.004C62.0078 122.43 61.5391 122.143 60.8906 122.143C60.25 122.143 59.7832 122.426 59.4902 122.992C59.1973 123.555 59.0508 124.459 59.0508 125.705Z" fill="black" fill-opacity="0.7"/>
<path d="M84 125.5H840" stroke="#D3D3D4"/>
<path d="M30.6855 173.338C30.6855 171.654 31.0117 170.396 31.6641 169.564C32.3203 168.729 33.2891 168.311 34.5703 168.311C35.0117 168.311 35.3594 168.348 35.6133 168.422V169.26C35.3125 169.162 34.9688 169.113 34.582 169.113C33.6641 169.113 32.9629 169.4 32.4785 169.975C31.9941 170.545 31.7285 171.443 31.6816 172.67H31.752C32.1816 171.998 32.8613 171.662 33.791 171.662C34.5605 171.662 35.166 171.895 35.6074 172.359C36.0527 172.824 36.2754 173.455 36.2754 174.252C36.2754 175.143 36.0312 175.844 35.543 176.355C35.0586 176.863 34.4023 177.117 33.5742 177.117C32.6875 177.117 31.9844 176.785 31.4648 176.121C30.9453 175.453 30.6855 174.525 30.6855 173.338ZM33.5625 176.291C34.1172 176.291 34.5469 176.117 34.8516 175.77C35.1602 175.418 35.3145 174.912 35.3145 174.252C35.3145 173.686 35.1719 173.24 34.8867 172.916C34.6016 172.592 34.1758 172.43 33.6094 172.43C33.2578 172.43 32.9355 172.502 32.6426 172.646C32.3496 172.791 32.1152 172.99 31.9395 173.244C31.7676 173.498 31.6816 173.762 31.6816 174.035C31.6816 174.438 31.7598 174.812 31.916 175.16C32.0723 175.508 32.293 175.783 32.5781 175.986C32.8672 176.189 33.1953 176.291 33.5625 176.291ZM43.1309 172.705C43.1309 174.186 42.8965 175.291 42.4277 176.021C41.9629 176.752 41.25 177.117 40.2891 177.117C39.3672 177.117 38.666 176.744 38.1855 175.998C37.7051 175.248 37.4648 174.15 37.4648 172.705C37.4648 171.213 37.6973 170.105 38.1621 169.383C38.627 168.66 39.3359 168.299 40.2891 168.299C41.2188 168.299 41.9238 168.676 42.4043 169.43C42.8887 170.184 43.1309 171.275 43.1309 172.705ZM38.4492 172.705C38.4492 173.951 38.5957 174.859 38.8887 175.43C39.1816 175.996 39.6484 176.279 40.2891 176.279C40.9375 176.279 41.4062 175.992 41.6953 175.418C41.9883 174.84 42.1348 173.936 42.1348 172.705C42.1348 171.475 41.9883 170.574 41.6953 170.004C41.4062 169.43 40.9375 169.143 40.2891 169.143C39.6484 169.143 39.1816 169.426 38.8887 169.992C38.5957 170.555 38.4492 171.459 38.4492 172.705ZM49.998 172.705C49.998 174.186 49.7637 175.291 49.2949 176.021C48.8301 176.752 48.1172 177.117 47.1562 177.117C46.2344 177.117 45.5332 176.744 45.0527 175.998C44.5723 175.248 44.332 174.15 44.332 172.705C44.332 171.213 44.5645 170.105 45.0293 169.383C45.4941 168.66 46.2031 168.299 47.1562 168.299C48.0859 168.299 48.791 168.676 49.2715 169.43C49.7559 170.184 49.998 171.275 49.998 172.705ZM45.3164 172.705C45.3164 173.951 45.4629 174.859 45.7559 175.43C46.0488 175.996 46.5156 176.279 47.1562 176.279C47.8047 176.279 48.2734 175.992 48.5625 175.418C48.8555 174.84 49.002 173.936 49.002 172.705C49.002 171.475 48.8555 170.574 48.5625 170.004C48.2734 169.43 47.8047 169.143 47.1562 169.143C46.5156 169.143 46.0488 169.426 45.7559 169.992C45.4629 170.555 45.3164 171.459 45.3164 172.705ZM56.8652 172.705C56.8652 174.186 56.6309 175.291 56.1621 176.021C55.6973 176.752 54.9844 177.117 54.0234 177.117C53.1016 177.117 52.4004 176.744 51.9199 175.998C51.4395 175.248 51.1992 174.15 51.1992 172.705C51.1992 171.213 51.4316 170.105 51.8965 169.383C52.3613 168.66 53.0703 168.299 54.0234 168.299C54.9531 168.299 55.6582 168.676 56.1387 169.43C56.623 170.184 56.8652 171.275 56.8652 172.705ZM52.1836 172.705C52.1836 173.951 52.3301 174.859 52.623 175.43C52.916 175.996 53.3828 176.279 54.0234 176.279C54.6719 176.279 55.1406 175.992 55.4297 175.418C55.7227 174.84 55.8691 173.936 55.8691 172.705C55.8691 171.475 55.7227 170.574 55.4297 170.004C55.1406 169.43 54.6719 169.143 54.0234 169.143C53.3828 169.143 52.916 169.426 52.623 169.992C52.3301 170.555 52.1836 171.459 52.1836 172.705ZM63.7324 172.705C63.7324 174.186 63.498 175.291 63.0293 176.021C62.5645 176.752 61.8516 177.117 60.8906 177.117C59.9688 177.117 59.2676 176.744 58.7871 175.998C58.3066 175.248 58.0664 174.15 58.0664 172.705C58.0664 171.213 58.2988 170.105 58.7637 169.383C59.2285 168.66 59.9375 168.299 60.8906 168.299C61.8203 168.299 62.5254 168.676 63.0059 169.43C63.4902 170.184 63.7324 171.275 63.7324 172.705ZM59.0508 172.705C59.0508 173.951 59.1973 174.859 59.4902 175.43C59.7832 175.996 60.25 176.279 60.8906 176.279C61.5391 176.279 62.0078 175.992 62.2969 175.418C62.5898 174.84 62.7363 173.936 62.7363 172.705C62.7363 171.475 62.5898 170.574 62.2969 170.004C62.0078 169.43 61.5391 169.143 60.8906 169.143C60.25 169.143 59.7832 169.426 59.4902 169.992C59.1973 170.555 59.0508 171.459 59.0508 172.705Z" fill="black" fill-opacity="0.7"/>
<path d="M84 172.5H840" stroke="#D3D3D4"/>
<path d="M33.2637 218.768C34.166 218.768 34.875 218.992 35.3906 219.441C35.9102 219.887 36.1699 220.498 36.1699 221.275C36.1699 222.162 35.8867 222.857 35.3203 223.361C34.7578 223.865 33.9805 224.117 32.9883 224.117C32.0234 224.117 31.2871 223.963 30.7793 223.654V222.717C31.0527 222.893 31.3926 223.031 31.7988 223.133C32.2051 223.23 32.6055 223.279 33 223.279C33.6875 223.279 34.2207 223.117 34.5996 222.793C34.9824 222.469 35.1738 222 35.1738 221.387C35.1738 220.191 34.4414 219.594 32.9766 219.594C32.6055 219.594 32.1094 219.65 31.4883 219.764L30.9844 219.441L31.3066 215.434H35.5664V216.33H32.1387L31.9219 218.902C32.3711 218.812 32.8184 218.768 33.2637 218.768ZM43.1309 219.705C43.1309 221.186 42.8965 222.291 42.4277 223.021C41.9629 223.752 41.25 224.117 40.2891 224.117C39.3672 224.117 38.666 223.744 38.1855 222.998C37.7051 222.248 37.4648 221.15 37.4648 219.705C37.4648 218.213 37.6973 217.105 38.1621 216.383C38.627 215.66 39.3359 215.299 40.2891 215.299C41.2188 215.299 41.9238 215.676 42.4043 216.43C42.8887 217.184 43.1309 218.275 43.1309 219.705ZM38.4492 219.705C38.4492 220.951 38.5957 221.859 38.8887 222.43C39.1816 222.996 39.6484 223.279 40.2891 223.279C40.9375 223.279 41.4062 222.992 41.6953 222.418C41.9883 221.84 42.1348 220.936 42.1348 219.705C42.1348 218.475 41.9883 217.574 41.6953 217.004C41.4062 216.43 40.9375 216.143 40.2891 216.143C39.6484 216.143 39.1816 216.426 38.8887 216.992C38.5957 217.555 38.4492 218.459 38.4492 219.705ZM49.998 219.705C49.998 221.186 49.7637 222.291 49.2949 223.021C48.8301 223.752 48.1172 224.117 47.1562 224.117C46.2344 224.117 45.5332 223.744 45.0527 222.998C44.5723 222.248 44.332 221.15 44.332 219.705C44.332 218.213 44.5645 217.105 45.0293 216.383C45.4941 215.66 46.2031 215.299 47.1562 215.299C48.0859 215.299 48.791 215.676 49.2715 216.43C49.7559 217.184 49.998 218.275 49.998 219.705ZM45.3164 219.705C45.3164 220.951 45.4629 221.859 45.7559 222.43C46.0488 222.996 46.5156 223.279 47.1562 223.279C47.8047 223.279 48.2734 222.992 48.5625 222.418C48.8555 221.84 49.002 220.936 49.002 219.705C49.002 218.475 48.8555 217.574 48.5625 217.004C48.2734 216.43 47.8047 216.143 47.1562 216.143C46.5156 216.143 46.0488 216.426 45.7559 216.992C45.4629 217.555 45.3164 218.459 45.3164 219.705ZM56.8652 219.705C56.8652 221.186 56.6309 222.291 56.1621 223.021C55.6973 223.752 54.9844 224.117 54.0234 224.117C53.1016 224.117 52.4004 223.744 51.9199 222.998C51.4395 222.248 51.1992 221.15 51.1992 219.705C51.1992 218.213 51.4316 217.105 51.8965 216.383C52.3613 215.66 53.0703 215.299 54.0234 215.299C54.9531 215.299 55.6582 215.676 56.1387 216.43C56.623 217.184 56.8652 218.275 56.8652 219.705ZM52.1836 219.705C52.1836 220.951 52.3301 221.859 52.623 222.43C52.916 222.996 53.3828 223.279 54.0234 223.279C54.6719 223.279 55.1406 222.992 55.4297 222.418C55.7227 221.84 55.8691 220.936 55.8691 219.705C55.8691 218.475 55.7227 217.574 55.4297 217.004C55.1406 216.43 54.6719 216.143 54.0234 216.143C53.3828 216.143 52.916 216.426 52.623 216.992C52.3301 217.555 52.1836 218.459 52.1836 219.705ZM63.7324 219.705C63.7324 221.186 63.498 222.291 63.0293 223.021C62.5645 223.752 61.8516 224.117 60.8906 224.117C59.9688 224.117 59.2676 223.744 58.7871 222.998C58.3066 222.248 58.0664 221.15 58.0664 219.705C58.0664 218.213 58.2988 217.105 58.7637 216.383C59.2285 215.66 59.9375 215.299 60.8906 215.299C61.8203 215.299 62.5254 215.676 63.0059 216.43C63.4902 217.184 63.7324 218.275 63.7324 219.705ZM59.0508 219.705C59.0508 220.951 59.1973 221.859 59.4902 222.43C59.7832 222.996 60.25 223.279 60.8906 223.279C61.5391 223.279 62.0078 222.992 62.2969 222.418C62.5898 221.84 62.7363 220.936 62.7363 219.705C62.7363 218.475 62.5898 217.574 62.2969 217.004C62.0078 216.43 61.5391 216.143 60.8906 216.143C60.25 216.143 59.7832 216.426 59.4902 216.992C59.1973 217.555 59.0508 218.459 59.0508 219.705Z" fill="black" fill-opacity="0.7"/>
<path d="M84 219.5H840" stroke="#D3D3D4"/>
<path d="M36.6211 269.031H35.3496V271H34.418V269.031H30.252V268.182L34.3184 262.387H35.3496V268.146H36.6211V269.031ZM34.418 268.146V265.299C34.418 264.74 34.4375 264.109 34.4766 263.406H34.4297C34.2422 263.781 34.0664 264.092 33.9023 264.338L31.2246 268.146H34.418ZM43.1309 266.705C43.1309 268.186 42.8965 269.291 42.4277 270.021C41.9629 270.752 41.25 271.117 40.2891 271.117C39.3672 271.117 38.666 270.744 38.1855 269.998C37.7051 269.248 37.4648 268.15 37.4648 266.705C37.4648 265.213 37.6973 264.105 38.1621 263.383C38.627 262.66 39.3359 262.299 40.2891 262.299C41.2188 262.299 41.9238 262.676 42.4043 263.43C42.8887 264.184 43.1309 265.275 43.1309 266.705ZM38.4492 266.705C38.4492 267.951 38.5957 268.859 38.8887 269.43C39.1816 269.996 39.6484 270.279 40.2891 270.279C40.9375 270.279 41.4062 269.992 41.6953 269.418C41.9883 268.84 42.1348 267.936 42.1348 266.705C42.1348 265.475 41.9883 264.574 41.6953 264.004C41.4062 263.43 40.9375 263.143 40.2891 263.143C39.6484 263.143 39.1816 263.426 38.8887 263.992C38.5957 264.555 38.4492 265.459 38.4492 266.705ZM49.998 266.705C49.998 268.186 49.7637 269.291 49.2949 270.021C48.8301 270.752 48.1172 271.117 47.1562 271.117C46.2344 271.117 45.5332 270.744 45.0527 269.998C44.5723 269.248 44.332 268.15 44.332 266.705C44.332 265.213 44.5645 264.105 45.0293 263.383C45.4941 262.66 46.2031 262.299 47.1562 262.299C48.0859 262.299 48.791 262.676 49.2715 263.43C49.7559 264.184 49.998 265.275 49.998 266.705ZM45.3164 266.705C45.3164 267.951 45.4629 268.859 45.7559 269.43C46.0488 269.996 46.5156 270.279 47.1562 270.279C47.8047 270.279 48.2734 269.992 48.5625 269.418C48.8555 268.84 49.002 267.936 49.002 266.705C49.002 265.475 48.8555 264.574 48.5625 264.004C48.2734 263.43 47.8047 263.143 47.1562 263.143C46.5156 263.143 46.0488 263.426 45.7559 263.992C45.4629 264.555 45.3164 265.459 45.3164 266.705ZM56.8652 266.705C56.8652 268.186 56.6309 269.291 56.1621 270.021C55.6973 270.752 54.9844 271.117 54.0234 271.117C53.1016 271.117 52.4004 270.744 51.9199 269.998C51.4395 269.248 51.1992 268.15 51.1992 266.705C51.1992 265.213 51.4316 264.105 51.8965 263.383C52.3613 262.66 53.0703 262.299 54.0234 262.299C54.9531 262.299 55.6582 262.676 56.1387 263.43C56.623 264.184 56.8652 265.275 56.8652 266.705ZM52.1836 266.705C52.1836 267.951 52.3301 268.859 52.623 269.43C52.916 269.996 53.3828 270.279 54.0234 270.279C54.6719 270.279 55.1406 269.992 55.4297 269.418C55.7227 268.84 55.8691 267.936 55.8691 266.705C55.8691 265.475 55.7227 264.574 55.4297 264.004C55.1406 263.43 54.6719 263.143 54.0234 263.143C53.3828 263.143 52.916 263.426 52.623 263.992C52.3301 264.555 52.1836 265.459 52.1836 266.705ZM63.7324 266.705C63.7324 268.186 63.498 269.291 63.0293 270.021C62.5645 270.752 61.8516 271.117 60.8906 271.117C59.9688 271.117 59.2676 270.744 58.7871 269.998C58.3066 269.248 58.0664 268.15 58.0664 266.705C58.0664 265.213 58.2988 264.105 58.7637 263.383C59.2285 262.66 59.9375 262.299 60.8906 262.299C61.8203 262.299 62.5254 262.676 63.0059 263.43C63.4902 264.184 63.7324 265.275 63.7324 266.705ZM59.0508 266.705C59.0508 267.951 59.1973 268.859 59.4902 269.43C59.7832 269.996 60.25 270.279 60.8906 270.279C61.5391 270.279 62.0078 269.992 62.2969 269.418C62.5898 268.84 62.7363 267.936 62.7363 266.705C62.7363 265.475 62.5898 264.574 62.2969 264.004C62.0078 263.43 61.5391 263.143 60.8906 263.143C60.25 263.143 59.7832 263.426 59.4902 263.992C59.1973 264.555 59.0508 265.459 59.0508 266.705Z" fill="black" fill-opacity="0.7"/>
<path d="M84 266.5H840" stroke="#D3D3D4"/>
<path d="M35.8945 311.449C35.8945 311.996 35.7402 312.443 35.4316 312.791C35.127 313.139 34.6934 313.371 34.1309 313.488V313.535C34.8184 313.621 35.3281 313.84 35.6602 314.191C35.9922 314.543 36.1582 315.004 36.1582 315.574C36.1582 316.391 35.875 317.02 35.3086 317.461C34.7422 317.898 33.9375 318.117 32.8945 318.117C32.4414 318.117 32.0254 318.082 31.6465 318.012C31.2715 317.945 30.9062 317.826 30.5508 317.654V316.729C30.9219 316.912 31.3164 317.053 31.7344 317.15C32.1562 317.244 32.5547 317.291 32.9297 317.291C34.4102 317.291 35.1504 316.711 35.1504 315.551C35.1504 314.512 34.334 313.992 32.7012 313.992H31.8574V313.154H32.7129C33.3809 313.154 33.9102 313.008 34.3008 312.715C34.6914 312.418 34.8867 312.008 34.8867 311.484C34.8867 311.066 34.7422 310.738 34.4531 310.5C34.168 310.262 33.7793 310.143 33.2871 310.143C32.9121 310.143 32.5586 310.193 32.2266 310.295C31.8945 310.396 31.5156 310.584 31.0898 310.857L30.5977 310.201C30.9492 309.924 31.3535 309.707 31.8105 309.551C32.2715 309.391 32.7559 309.311 33.2637 309.311C34.0957 309.311 34.7422 309.502 35.2031 309.885C35.6641 310.264 35.8945 310.785 35.8945 311.449ZM43.1309 313.705C43.1309 315.186 42.8965 316.291 42.4277 317.021C41.9629 317.752 41.25 318.117 40.2891 318.117C39.3672 318.117 38.666 317.744 38.1855 316.998C37.7051 316.248 37.4648 315.15 37.4648 313.705C37.4648 312.213 37.6973 311.105 38.1621 310.383C38.627 309.66 39.3359 309.299 40.2891 309.299C41.2188 309.299 41.9238 309.676 42.4043 310.43C42.8887 311.184 43.1309 312.275 43.1309 313.705ZM38.4492 313.705C38.4492 314.951 38.5957 315.859 38.8887 316.43C39.1816 316.996 39.6484 317.279 40.2891 317.279C40.9375 317.279 41.4062 316.992 41.6953 316.418C41.9883 315.84 42.1348 314.936 42.1348 313.705C42.1348 312.475 41.9883 311.574 41.6953 311.004C41.4062 310.43 40.9375 310.143 40.2891 310.143C39.6484 310.143 39.1816 310.426 38.8887 310.992C38.5957 311.555 38.4492 312.459 38.4492 313.705ZM49.998 313.705C49.998 315.186 49.7637 316.291 49.2949 317.021C48.8301 317.752 48.1172 318.117 47.1562 318.117C46.2344 318.117 45.5332 317.744 45.0527 316.998C44.5723 316.248 44.332 315.15 44.332 313.705C44.332 312.213 44.5645 311.105 45.0293 310.383C45.4941 309.66 46.2031 309.299 47.1562 309.299C48.0859 309.299 48.791 309.676 49.2715 310.43C49.7559 311.184 49.998 312.275 49.998 313.705ZM45.3164 313.705C45.3164 314.951 45.4629 315.859 45.7559 316.43C46.0488 316.996 46.5156 317.279 47.1562 317.279C47.8047 317.279 48.2734 316.992 48.5625 316.418C48.8555 315.84 49.002 314.936 49.002 313.705C49.002 312.475 48.8555 311.574 48.5625 311.004C48.2734 310.43 47.8047 310.143 47.1562 310.143C46.5156 310.143 46.0488 310.426 45.7559 310.992C45.4629 311.555 45.3164 312.459 45.3164 313.705ZM56.8652 313.705C56.8652 315.186 56.6309 316.291 56.1621 317.021C55.6973 317.752 54.9844 318.117 54.0234 318.117C53.1016 318.117 52.4004 317.744 51.9199 316.998C51.4395 316.248 51.1992 315.15 51.1992 313.705C51.1992 312.213 51.4316 311.105 51.8965 310.383C52.3613 309.66 53.0703 309.299 54.0234 309.299C54.9531 309.299 55.6582 309.676 56.1387 310.43C56.623 311.184 56.8652 312.275 56.8652 313.705ZM52.1836 313.705C52.1836 314.951 52.3301 315.859 52.623 316.43C52.916 316.996 53.3828 317.279 54.0234 317.279C54.6719 317.279 55.1406 316.992 55.4297 316.418C55.7227 315.84 55.8691 314.936 55.8691 313.705C55.8691 312.475 55.7227 311.574 55.4297 311.004C55.1406 310.43 54.6719 310.143 54.0234 310.143C53.3828 310.143 52.916 310.426 52.623 310.992C52.3301 311.555 52.1836 312.459 52.1836 313.705ZM63.7324 313.705C63.7324 315.186 63.498 316.291 63.0293 317.021C62.5645 317.752 61.8516 318.117 60.8906 318.117C59.9688 318.117 59.2676 317.744 58.7871 316.998C58.3066 316.248 58.0664 315.15 58.0664 313.705C58.0664 312.213 58.2988 311.105 58.7637 310.383C59.2285 309.66 59.9375 309.299 60.8906 309.299C61.8203 309.299 62.5254 309.676 63.0059 310.43C63.4902 311.184 63.7324 312.275 63.7324 313.705ZM59.0508 313.705C59.0508 314.951 59.1973 315.859 59.4902 316.43C59.7832 316.996 60.25 317.279 60.8906 317.279C61.5391 317.279 62.0078 316.992 62.2969 316.418C62.5898 315.84 62.7363 314.936 62.7363 313.705C62.7363 312.475 62.5898 311.574 62.2969 311.004C62.0078 310.43 61.5391 310.143 60.8906 310.143C60.25 310.143 59.7832 310.426 59.4902 310.992C59.1973 311.555 59.0508 312.459 59.0508 313.705Z" fill="black" fill-opacity="0.7"/>
<path d="M84 313.5H840" stroke="#D3D3D4"/>
<path d="M36.2168 365H30.5859V364.162L32.8418 361.895C33.5293 361.199 33.9824 360.703 34.2012 360.406C34.4199 360.109 34.584 359.82 34.6934 359.539C34.8027 359.258 34.8574 358.955 34.8574 358.631C34.8574 358.174 34.7188 357.812 34.4414 357.547C34.1641 357.277 33.7793 357.143 33.2871 357.143C32.9316 357.143 32.5938 357.201 32.2734 357.318C31.957 357.436 31.6035 357.648 31.2129 357.957L30.6973 357.295C31.4863 356.639 32.3457 356.311 33.2754 356.311C34.0801 356.311 34.7109 356.518 35.168 356.932C35.625 357.342 35.8535 357.895 35.8535 358.59C35.8535 359.133 35.7012 359.67 35.3965 360.201C35.0918 360.732 34.5215 361.404 33.6855 362.217L31.8105 364.051V364.098H36.2168V365ZM43.1309 360.705C43.1309 362.186 42.8965 363.291 42.4277 364.021C41.9629 364.752 41.25 365.117 40.2891 365.117C39.3672 365.117 38.666 364.744 38.1855 363.998C37.7051 363.248 37.4648 362.15 37.4648 360.705C37.4648 359.213 37.6973 358.105 38.1621 357.383C38.627 356.66 39.3359 356.299 40.2891 356.299C41.2188 356.299 41.9238 356.676 42.4043 357.43C42.8887 358.184 43.1309 359.275 43.1309 360.705ZM38.4492 360.705C38.4492 361.951 38.5957 362.859 38.8887 363.43C39.1816 363.996 39.6484 364.279 40.2891 364.279C40.9375 364.279 41.4062 363.992 41.6953 363.418C41.9883 362.84 42.1348 361.936 42.1348 360.705C42.1348 359.475 41.9883 358.574 41.6953 358.004C41.4062 357.43 40.9375 357.143 40.2891 357.143C39.6484 357.143 39.1816 357.426 38.8887 357.992C38.5957 358.555 38.4492 359.459 38.4492 360.705ZM49.998 360.705C49.998 362.186 49.7637 363.291 49.2949 364.021C48.8301 364.752 48.1172 365.117 47.1562 365.117C46.2344 365.117 45.5332 364.744 45.0527 363.998C44.5723 363.248 44.332 362.15 44.332 360.705C44.332 359.213 44.5645 358.105 45.0293 357.383C45.4941 356.66 46.2031 356.299 47.1562 356.299C48.0859 356.299 48.791 356.676 49.2715 357.43C49.7559 358.184 49.998 359.275 49.998 360.705ZM45.3164 360.705C45.3164 361.951 45.4629 362.859 45.7559 363.43C46.0488 363.996 46.5156 364.279 47.1562 364.279C47.8047 364.279 48.2734 363.992 48.5625 363.418C48.8555 362.84 49.002 361.936 49.002 360.705C49.002 359.475 48.8555 358.574 48.5625 358.004C48.2734 357.43 47.8047 357.143 47.1562 357.143C46.5156 357.143 46.0488 357.426 45.7559 357.992C45.4629 358.555 45.3164 359.459 45.3164 360.705ZM56.8652 360.705C56.8652 362.186 56.6309 363.291 56.1621 364.021C55.6973 364.752 54.9844 365.117 54.0234 365.117C53.1016 365.117 52.4004 364.744 51.9199 363.998C51.4395 363.248 51.1992 362.15 51.1992 360.705C51.1992 359.213 51.4316 358.105 51.8965 357.383C52.3613 356.66 53.0703 356.299 54.0234 356.299C54.9531 356.299 55.6582 356.676 56.1387 357.43C56.623 358.184 56.8652 359.275 56.8652 360.705ZM52.1836 360.705C52.1836 361.951 52.3301 362.859 52.623 363.43C52.916 363.996 53.3828 364.279 54.0234 364.279C54.6719 364.279 55.1406 363.992 55.4297 363.418C55.7227 362.84 55.8691 361.936 55.8691 360.705C55.8691 359.475 55.7227 358.574 55.4297 358.004C55.1406 357.43 54.6719 357.143 54.0234 357.143C53.3828 357.143 52.916 357.426 52.623 357.992C52.3301 358.555 52.1836 359.459 52.1836 360.705ZM63.7324 360.705C63.7324 362.186 63.498 363.291 63.0293 364.021C62.5645 364.752 61.8516 365.117 60.8906 365.117C59.9688 365.117 59.2676 364.744 58.7871 363.998C58.3066 363.248 58.0664 362.15 58.0664 360.705C58.0664 359.213 58.2988 358.105 58.7637 357.383C59.2285 356.66 59.9375 356.299 60.8906 356.299C61.8203 356.299 62.5254 356.676 63.0059 357.43C63.4902 358.184 63.7324 359.275 63.7324 360.705ZM59.0508 360.705C59.0508 361.951 59.1973 362.859 59.4902 363.43C59.7832 363.996 60.25 364.279 60.8906 364.279C61.5391 364.279 62.0078 363.992 62.2969 363.418C62.5898 362.84 62.7363 361.936 62.7363 360.705C62.7363 359.475 62.5898 358.574 62.2969 358.004C62.0078 357.43 61.5391 357.143 60.8906 357.143C60.25 357.143 59.7832 357.426 59.4902 357.992C59.1973 358.555 59.0508 359.459 59.0508 360.705Z" fill="black" fill-opacity="0.7"/>
<path d="M84 360.5H840" stroke="#D3D3D4"/>
<path d="M114.038 360V366" stroke="#D3D3D4"/>
<path d="M102.29 382H101.341V375.895C101.341 375.387 101.357 374.906 101.388 374.453C101.306 374.535 101.214 374.621 101.113 374.711C101.011 374.801 100.546 375.182 99.7181 375.854L99.2025 375.186L101.47 373.434H102.29V382ZM111.185 382H105.554V381.162L107.81 378.895C108.497 378.199 108.951 377.703 109.169 377.406C109.388 377.109 109.552 376.82 109.661 376.539C109.771 376.258 109.826 375.955 109.826 375.631C109.826 375.174 109.687 374.812 109.41 374.547C109.132 374.277 108.747 374.143 108.255 374.143C107.9 374.143 107.562 374.201 107.242 374.318C106.925 374.436 106.572 374.648 106.181 374.957L105.665 374.295C106.454 373.639 107.314 373.311 108.244 373.311C109.048 373.311 109.679 373.518 110.136 373.932C110.593 374.342 110.822 374.895 110.822 375.59C110.822 376.133 110.669 376.67 110.365 377.201C110.06 377.732 109.49 378.404 108.654 379.217L106.779 381.051V381.098H111.185V382ZM116.119 373.434L112.925 382H111.953L115.146 373.434H116.119ZM122.458 382H116.828V381.162L119.083 378.895C119.771 378.199 120.224 377.703 120.443 377.406C120.661 377.109 120.826 376.82 120.935 376.539C121.044 376.258 121.099 375.955 121.099 375.631C121.099 375.174 120.96 374.812 120.683 374.547C120.406 374.277 120.021 374.143 119.529 374.143C119.173 374.143 118.835 374.201 118.515 374.318C118.199 374.436 117.845 374.648 117.454 374.957L116.939 374.295C117.728 373.639 118.587 373.311 119.517 373.311C120.322 373.311 120.953 373.518 121.41 373.932C121.867 374.342 122.095 374.895 122.095 375.59C122.095 376.133 121.943 376.67 121.638 377.201C121.333 377.732 120.763 378.404 119.927 379.217L118.052 381.051V381.098H122.458V382ZM129.003 375.449C129.003 375.996 128.849 376.443 128.54 376.791C128.236 377.139 127.802 377.371 127.24 377.488V377.535C127.927 377.621 128.437 377.84 128.769 378.191C129.101 378.543 129.267 379.004 129.267 379.574C129.267 380.391 128.984 381.02 128.417 381.461C127.851 381.898 127.046 382.117 126.003 382.117C125.55 382.117 125.134 382.082 124.755 382.012C124.38 381.945 124.015 381.826 123.66 381.654V380.729C124.031 380.912 124.425 381.053 124.843 381.15C125.265 381.244 125.663 381.291 126.038 381.291C127.519 381.291 128.259 380.711 128.259 379.551C128.259 378.512 127.443 377.992 125.81 377.992H124.966V377.154H125.822C126.49 377.154 127.019 377.008 127.41 376.715C127.8 376.418 127.995 376.008 127.995 375.484C127.995 375.066 127.851 374.738 127.562 374.5C127.277 374.262 126.888 374.143 126.396 374.143C126.021 374.143 125.667 374.193 125.335 374.295C125.003 374.396 124.624 374.584 124.199 374.857L123.706 374.201C124.058 373.924 124.462 373.707 124.919 373.551C125.38 373.391 125.865 373.311 126.372 373.311C127.204 373.311 127.851 373.502 128.312 373.885C128.773 374.264 129.003 374.785 129.003 375.449Z" fill="black" fill-opacity="0.7"/>
<path d="M172.115 360V366" stroke="#D3D3D4"/>
<path d="M162.442 377.705C162.442 379.186 162.207 380.291 161.738 381.021C161.274 381.752 160.561 382.117 159.6 382.117C158.678 382.117 157.977 381.744 157.496 380.998C157.016 380.248 156.776 379.15 156.776 377.705C156.776 376.213 157.008 375.105 157.473 374.383C157.938 373.66 158.647 373.299 159.6 373.299C160.529 373.299 161.234 373.676 161.715 374.43C162.199 375.184 162.442 376.275 162.442 377.705ZM157.76 377.705C157.76 378.951 157.906 379.859 158.199 380.43C158.492 380.996 158.959 381.279 159.6 381.279C160.248 381.279 160.717 380.992 161.006 380.418C161.299 379.84 161.445 378.936 161.445 377.705C161.445 376.475 161.299 375.574 161.006 375.004C160.717 374.43 160.248 374.143 159.6 374.143C158.959 374.143 158.492 374.426 158.199 374.992C157.906 375.555 157.76 376.459 157.76 377.705ZM167.234 382H166.285V375.895C166.285 375.387 166.301 374.906 166.332 374.453C166.25 374.535 166.158 374.621 166.057 374.711C165.955 374.801 165.49 375.182 164.662 375.854L164.147 375.186L166.414 373.434H167.234V382ZM174.195 373.434L171.002 382H170.029L173.223 373.434H174.195ZM180.535 382H174.904V381.162L177.16 378.895C177.848 378.199 178.301 377.703 178.52 377.406C178.738 377.109 178.902 376.82 179.012 376.539C179.121 376.258 179.176 375.955 179.176 375.631C179.176 375.174 179.037 374.812 178.76 374.547C178.483 374.277 178.098 374.143 177.606 374.143C177.25 374.143 176.912 374.201 176.592 374.318C176.276 374.436 175.922 374.648 175.531 374.957L175.016 374.295C175.805 373.639 176.664 373.311 177.594 373.311C178.399 373.311 179.029 373.518 179.486 373.932C179.943 374.342 180.172 374.895 180.172 375.59C180.172 376.133 180.02 376.67 179.715 377.201C179.41 377.732 178.84 378.404 178.004 379.217L176.129 381.051V381.098H180.535V382ZM187.807 380.031H186.535V382H185.604V380.031H181.438V379.182L185.504 373.387H186.535V379.146H187.807V380.031ZM185.604 379.146V376.299C185.604 375.74 185.623 375.109 185.662 374.406H185.615C185.428 374.781 185.252 375.092 185.088 375.338L182.41 379.146H185.604Z" fill="black" fill-opacity="0.7"/>
<path d="M230.192 360V366" stroke="#D3D3D4"/>
<path d="M220.518 377.705C220.518 379.186 220.284 380.291 219.815 381.021C219.351 381.752 218.638 382.117 217.677 382.117C216.755 382.117 216.054 381.744 215.573 380.998C215.093 380.248 214.852 379.15 214.852 377.705C214.852 376.213 215.085 375.105 215.55 374.383C216.015 373.66 216.724 373.299 217.677 373.299C218.606 373.299 219.311 373.676 219.792 374.43C220.276 375.184 220.518 376.275 220.518 377.705ZM215.837 377.705C215.837 378.951 215.983 379.859 216.276 380.43C216.569 380.996 217.036 381.279 217.677 381.279C218.325 381.279 218.794 380.992 219.083 380.418C219.376 379.84 219.522 378.936 219.522 377.705C219.522 376.475 219.376 375.574 219.083 375.004C218.794 374.43 218.325 374.143 217.677 374.143C217.036 374.143 216.569 374.426 216.276 374.992C215.983 375.555 215.837 376.459 215.837 377.705ZM227.339 382H221.708V381.162L223.964 378.895C224.651 378.199 225.104 377.703 225.323 377.406C225.542 377.109 225.706 376.82 225.815 376.539C225.925 376.258 225.979 375.955 225.979 375.631C225.979 375.174 225.841 374.812 225.563 374.547C225.286 374.277 224.901 374.143 224.409 374.143C224.054 374.143 223.716 374.201 223.395 374.318C223.079 374.436 222.726 374.648 222.335 374.957L221.819 374.295C222.608 373.639 223.468 373.311 224.397 373.311C225.202 373.311 225.833 373.518 226.29 373.932C226.747 374.342 226.976 374.895 226.976 375.59C226.976 376.133 226.823 376.67 226.518 377.201C226.214 377.732 225.643 378.404 224.808 379.217L222.933 381.051V381.098H227.339V382ZM232.272 373.434L229.079 382H228.106L231.3 373.434H232.272ZM238.612 382H232.981V381.162L235.237 378.895C235.925 378.199 236.378 377.703 236.597 377.406C236.815 377.109 236.979 376.82 237.089 376.539C237.198 376.258 237.253 375.955 237.253 375.631C237.253 375.174 237.114 374.812 236.837 374.547C236.56 374.277 236.175 374.143 235.683 374.143C235.327 374.143 234.989 374.201 234.669 374.318C234.352 374.436 233.999 374.648 233.608 374.957L233.093 374.295C233.882 373.639 234.741 373.311 235.671 373.311C236.476 373.311 237.106 373.518 237.563 373.932C238.02 374.342 238.249 374.895 238.249 375.59C238.249 376.133 238.097 376.67 237.792 377.201C237.487 377.732 236.917 378.404 236.081 379.217L234.206 381.051V381.098H238.612V382ZM245.884 380.031H244.612V382H243.681V380.031H239.515V379.182L243.581 373.387H244.612V379.146H245.884V380.031ZM243.681 379.146V376.299C243.681 375.74 243.7 375.109 243.739 374.406H243.692C243.505 374.781 243.329 375.092 243.165 375.338L240.487 379.146H243.681Z" fill="black" fill-opacity="0.7"/>
<path d="M288.269 360V366" stroke="#D3D3D4"/>
<path d="M278.595 377.705C278.595 379.186 278.361 380.291 277.892 381.021C277.427 381.752 276.715 382.117 275.754 382.117C274.832 382.117 274.131 381.744 273.65 380.998C273.17 380.248 272.929 379.15 272.929 377.705C272.929 376.213 273.162 375.105 273.627 374.383C274.091 373.66 274.8 373.299 275.754 373.299C276.683 373.299 277.388 373.676 277.869 374.43C278.353 375.184 278.595 376.275 278.595 377.705ZM273.914 377.705C273.914 378.951 274.06 379.859 274.353 380.43C274.646 380.996 275.113 381.279 275.754 381.279C276.402 381.279 276.871 380.992 277.16 380.418C277.453 379.84 277.599 378.936 277.599 377.705C277.599 376.475 277.453 375.574 277.16 375.004C276.871 374.43 276.402 374.143 275.754 374.143C275.113 374.143 274.646 374.426 274.353 374.992C274.06 375.555 273.914 376.459 273.914 377.705ZM285.093 375.449C285.093 375.996 284.939 376.443 284.631 376.791C284.326 377.139 283.892 377.371 283.33 377.488V377.535C284.017 377.621 284.527 377.84 284.859 378.191C285.191 378.543 285.357 379.004 285.357 379.574C285.357 380.391 285.074 381.02 284.508 381.461C283.941 381.898 283.136 382.117 282.093 382.117C281.64 382.117 281.224 382.082 280.845 382.012C280.47 381.945 280.105 381.826 279.75 381.654V380.729C280.121 380.912 280.515 381.053 280.933 381.15C281.355 381.244 281.754 381.291 282.129 381.291C283.609 381.291 284.349 380.711 284.349 379.551C284.349 378.512 283.533 377.992 281.9 377.992H281.056V377.154H281.912C282.58 377.154 283.109 377.008 283.5 376.715C283.89 376.418 284.086 376.008 284.086 375.484C284.086 375.066 283.941 374.738 283.652 374.5C283.367 374.262 282.978 374.143 282.486 374.143C282.111 374.143 281.758 374.193 281.425 374.295C281.093 374.396 280.715 374.584 280.289 374.857L279.797 374.201C280.148 373.924 280.552 373.707 281.009 373.551C281.47 373.391 281.955 373.311 282.463 373.311C283.295 373.311 283.941 373.502 284.402 373.885C284.863 374.264 285.093 374.785 285.093 375.449ZM290.349 373.434L287.156 382H286.183L289.377 373.434H290.349ZM296.689 382H291.058V381.162L293.314 378.895C294.002 378.199 294.455 377.703 294.674 377.406C294.892 377.109 295.056 376.82 295.166 376.539C295.275 376.258 295.33 375.955 295.33 375.631C295.33 375.174 295.191 374.812 294.914 374.547C294.636 374.277 294.252 374.143 293.759 374.143C293.404 374.143 293.066 374.201 292.746 374.318C292.429 374.436 292.076 374.648 291.685 374.957L291.17 374.295C291.959 373.639 292.818 373.311 293.748 373.311C294.552 373.311 295.183 373.518 295.64 373.932C296.097 374.342 296.326 374.895 296.326 375.59C296.326 376.133 296.174 376.67 295.869 377.201C295.564 377.732 294.994 378.404 294.158 379.217L292.283 381.051V381.098H296.689V382ZM303.961 380.031H302.689V382H301.758V380.031H297.591V379.182L301.658 373.387H302.689V379.146H303.961V380.031ZM301.758 379.146V376.299C301.758 375.74 301.777 375.109 301.816 374.406H301.769C301.582 374.781 301.406 375.092 301.242 375.338L298.564 379.146H301.758Z" fill="black" fill-opacity="0.7"/>
<path d="M346.346 360V366" stroke="#D3D3D4"/>
<path d="M336.672 377.705C336.672 379.186 336.438 380.291 335.969 381.021C335.504 381.752 334.792 382.117 333.831 382.117C332.909 382.117 332.208 381.744 331.727 380.998C331.247 380.248 331.006 379.15 331.006 377.705C331.006 376.213 331.239 375.105 331.704 374.383C332.168 373.66 332.877 373.299 333.831 373.299C334.76 373.299 335.465 373.676 335.946 374.43C336.43 375.184 336.672 376.275 336.672 377.705ZM331.991 377.705C331.991 378.951 332.137 379.859 332.43 380.43C332.723 380.996 333.19 381.279 333.831 381.279C334.479 381.279 334.948 380.992 335.237 380.418C335.53 379.84 335.676 378.936 335.676 377.705C335.676 376.475 335.53 375.574 335.237 375.004C334.948 374.43 334.479 374.143 333.831 374.143C333.19 374.143 332.723 374.426 332.43 374.992C332.137 375.555 331.991 376.459 331.991 377.705ZM343.897 380.031H342.625V382H341.694V380.031H337.528V379.182L341.594 373.387H342.625V379.146H343.897V380.031ZM341.694 379.146V376.299C341.694 375.74 341.713 375.109 341.752 374.406H341.706C341.518 374.781 341.342 375.092 341.178 375.338L338.5 379.146H341.694ZM348.426 373.434L345.233 382H344.26L347.454 373.434H348.426ZM354.766 382H349.135V381.162L351.391 378.895C352.079 378.199 352.532 377.703 352.75 377.406C352.969 377.109 353.133 376.82 353.243 376.539C353.352 376.258 353.407 375.955 353.407 375.631C353.407 375.174 353.268 374.812 352.991 374.547C352.713 374.277 352.329 374.143 351.836 374.143C351.481 374.143 351.143 374.201 350.823 374.318C350.506 374.436 350.153 374.648 349.762 374.957L349.247 374.295C350.036 373.639 350.895 373.311 351.825 373.311C352.629 373.311 353.26 373.518 353.717 373.932C354.174 374.342 354.403 374.895 354.403 375.59C354.403 376.133 354.25 376.67 353.946 377.201C353.641 377.732 353.071 378.404 352.235 379.217L350.36 381.051V381.098H354.766V382ZM362.038 380.031H360.766V382H359.834V380.031H355.668V379.182L359.735 373.387H360.766V379.146H362.038V380.031ZM359.834 379.146V376.299C359.834 375.74 359.854 375.109 359.893 374.406H359.846C359.659 374.781 359.483 375.092 359.319 375.338L356.641 379.146H359.834Z" fill="black" fill-opacity="0.7"/>
<path d="M404.423 360V366" stroke="#D3D3D4"/>
<path d="M394.749 377.705C394.749 379.186 394.515 380.291 394.046 381.021C393.581 381.752 392.868 382.117 391.907 382.117C390.986 382.117 390.284 381.744 389.804 380.998C389.323 380.248 389.083 379.15 389.083 377.705C389.083 376.213 389.316 375.105 389.781 374.383C390.245 373.66 390.954 373.299 391.907 373.299C392.837 373.299 393.542 373.676 394.023 374.43C394.507 375.184 394.749 376.275 394.749 377.705ZM390.068 377.705C390.068 378.951 390.214 379.859 390.507 380.43C390.8 380.996 391.267 381.279 391.907 381.279C392.556 381.279 393.025 380.992 393.314 380.418C393.607 379.84 393.753 378.936 393.753 377.705C393.753 376.475 393.607 375.574 393.314 375.004C393.025 374.43 392.556 374.143 391.907 374.143C391.267 374.143 390.8 374.426 390.507 374.992C390.214 375.555 390.068 376.459 390.068 377.705ZM398.616 376.768C399.519 376.768 400.228 376.992 400.743 377.441C401.263 377.887 401.523 378.498 401.523 379.275C401.523 380.162 401.24 380.857 400.673 381.361C400.111 381.865 399.333 382.117 398.341 382.117C397.376 382.117 396.64 381.963 396.132 381.654V380.717C396.406 380.893 396.745 381.031 397.152 381.133C397.558 381.23 397.958 381.279 398.353 381.279C399.04 381.279 399.573 381.117 399.952 380.793C400.335 380.469 400.527 380 400.527 379.387C400.527 378.191 399.794 377.594 398.329 377.594C397.958 377.594 397.462 377.65 396.841 377.764L396.337 377.441L396.659 373.434H400.919V374.33H397.491L397.275 376.902C397.724 376.812 398.171 376.768 398.616 376.768ZM406.503 373.434L403.31 382H402.337L405.531 373.434H406.503ZM412.843 382H407.212V381.162L409.468 378.895C410.156 378.199 410.609 377.703 410.827 377.406C411.046 377.109 411.21 376.82 411.32 376.539C411.429 376.258 411.484 375.955 411.484 375.631C411.484 375.174 411.345 374.812 411.068 374.547C410.79 374.277 410.406 374.143 409.913 374.143C409.558 374.143 409.22 374.201 408.9 374.318C408.583 374.436 408.23 374.648 407.839 374.957L407.323 374.295C408.113 373.639 408.972 373.311 409.902 373.311C410.706 373.311 411.337 373.518 411.794 373.932C412.251 374.342 412.48 374.895 412.48 375.59C412.48 376.133 412.327 376.67 412.023 377.201C411.718 377.732 411.148 378.404 410.312 379.217L408.437 381.051V381.098H412.843V382ZM420.115 380.031H418.843V382H417.911V380.031H413.745V379.182L417.812 373.387H418.843V379.146H420.115V380.031ZM417.911 379.146V376.299C417.911 375.74 417.931 375.109 417.97 374.406H417.923C417.736 374.781 417.56 375.092 417.396 375.338L414.718 379.146H417.911Z" fill="black" fill-opacity="0.7"/>
<path d="M462.5 360V366" stroke="#D3D3D4"/>
<path d="M452.826 377.705C452.826 379.186 452.592 380.291 452.123 381.021C451.658 381.752 450.945 382.117 449.984 382.117C449.063 382.117 448.361 381.744 447.881 380.998C447.4 380.248 447.16 379.15 447.16 377.705C447.16 376.213 447.393 375.105 447.857 374.383C448.322 373.66 449.031 373.299 449.984 373.299C450.914 373.299 451.619 373.676 452.1 374.43C452.584 375.184 452.826 376.275 452.826 377.705ZM448.145 377.705C448.145 378.951 448.291 379.859 448.584 380.43C448.877 380.996 449.344 381.279 449.984 381.279C450.633 381.279 451.102 380.992 451.391 380.418C451.684 379.84 451.83 378.936 451.83 377.705C451.83 376.475 451.684 375.574 451.391 375.004C451.102 374.43 450.633 374.143 449.984 374.143C449.344 374.143 448.877 374.426 448.584 374.992C448.291 375.555 448.145 376.459 448.145 377.705ZM454.115 378.338C454.115 376.654 454.441 375.396 455.094 374.564C455.75 373.729 456.719 373.311 458 373.311C458.441 373.311 458.789 373.348 459.043 373.422V374.26C458.742 374.162 458.398 374.113 458.012 374.113C457.094 374.113 456.393 374.4 455.908 374.975C455.424 375.545 455.158 376.443 455.111 377.67H455.182C455.611 376.998 456.291 376.662 457.221 376.662C457.99 376.662 458.596 376.895 459.037 377.359C459.482 377.824 459.705 378.455 459.705 379.252C459.705 380.143 459.461 380.844 458.973 381.355C458.488 381.863 457.832 382.117 457.004 382.117C456.117 382.117 455.414 381.785 454.895 381.121C454.375 380.453 454.115 379.525 454.115 378.338ZM456.992 381.291C457.547 381.291 457.977 381.117 458.281 380.77C458.59 380.418 458.744 379.912 458.744 379.252C458.744 378.686 458.602 378.24 458.316 377.916C458.031 377.592 457.605 377.43 457.039 377.43C456.688 377.43 456.365 377.502 456.072 377.646C455.779 377.791 455.545 377.99 455.369 378.244C455.197 378.498 455.111 378.762 455.111 379.035C455.111 379.438 455.189 379.812 455.346 380.16C455.502 380.508 455.723 380.783 456.008 380.986C456.297 381.189 456.625 381.291 456.992 381.291ZM464.58 373.434L461.387 382H460.414L463.607 373.434H464.58ZM470.92 382H465.289V381.162L467.545 378.895C468.232 378.199 468.686 377.703 468.904 377.406C469.123 377.109 469.287 376.82 469.397 376.539C469.506 376.258 469.561 375.955 469.561 375.631C469.561 375.174 469.422 374.812 469.145 374.547C468.867 374.277 468.482 374.143 467.99 374.143C467.635 374.143 467.297 374.201 466.977 374.318C466.66 374.436 466.307 374.648 465.916 374.957L465.4 374.295C466.189 373.639 467.049 373.311 467.979 373.311C468.783 373.311 469.414 373.518 469.871 373.932C470.328 374.342 470.557 374.895 470.557 375.59C470.557 376.133 470.404 376.67 470.1 377.201C469.795 377.732 469.225 378.404 468.389 379.217L466.514 381.051V381.098H470.92V382ZM478.191 380.031H476.92V382H475.988V380.031H471.822V379.182L475.889 373.387H476.92V379.146H478.191V380.031ZM475.988 379.146V376.299C475.988 375.74 476.008 375.109 476.047 374.406H476C475.813 374.781 475.637 375.092 475.473 375.338L472.795 379.146H475.988Z" fill="black" fill-opacity="0.7"/>
<path d="M520.577 360V366" stroke="#D3D3D4"/>
<path d="M510.903 377.705C510.903 379.186 510.669 380.291 510.2 381.021C509.735 381.752 509.022 382.117 508.061 382.117C507.139 382.117 506.438 381.744 505.958 380.998C505.477 380.248 505.237 379.15 505.237 377.705C505.237 376.213 505.47 375.105 505.934 374.383C506.399 373.66 507.108 373.299 508.061 373.299C508.991 373.299 509.696 373.676 510.177 374.43C510.661 375.184 510.903 376.275 510.903 377.705ZM506.221 377.705C506.221 378.951 506.368 379.859 506.661 380.43C506.954 380.996 507.421 381.279 508.061 381.279C508.71 381.279 509.179 380.992 509.468 380.418C509.761 379.84 509.907 378.936 509.907 377.705C509.907 376.475 509.761 375.574 509.468 375.004C509.179 374.43 508.71 374.143 508.061 374.143C507.421 374.143 506.954 374.426 506.661 374.992C506.368 375.555 506.221 376.459 506.221 377.705ZM513.177 382L516.727 374.33H512.057V373.434H517.759V374.213L514.255 382H513.177ZM522.657 373.434L519.464 382H518.491L521.684 373.434H522.657ZM528.997 382H523.366V381.162L525.622 378.895C526.309 378.199 526.763 377.703 526.981 377.406C527.2 377.109 527.364 376.82 527.473 376.539C527.583 376.258 527.638 375.955 527.638 375.631C527.638 375.174 527.499 374.812 527.221 374.547C526.944 374.277 526.559 374.143 526.067 374.143C525.712 374.143 525.374 374.201 525.054 374.318C524.737 374.436 524.384 374.648 523.993 374.957L523.477 374.295C524.266 373.639 525.126 373.311 526.055 373.311C526.86 373.311 527.491 373.518 527.948 373.932C528.405 374.342 528.634 374.895 528.634 375.59C528.634 376.133 528.481 376.67 528.177 377.201C527.872 377.732 527.302 378.404 526.466 379.217L524.591 381.051V381.098H528.997V382ZM536.268 380.031H534.997V382H534.065V380.031H529.899V379.182L533.966 373.387H534.997V379.146H536.268V380.031ZM534.065 379.146V376.299C534.065 375.74 534.085 375.109 534.124 374.406H534.077C533.889 374.781 533.714 375.092 533.55 375.338L530.872 379.146H534.065Z" fill="black" fill-opacity="0.7"/>
<path d="M578.654 360V366" stroke="#D3D3D4"/>
<path d="M568.98 377.705C568.98 379.186 568.746 380.291 568.277 381.021C567.812 381.752 567.099 382.117 566.138 382.117C565.216 382.117 564.515 381.744 564.035 380.998C563.554 380.248 563.314 379.15 563.314 377.705C563.314 376.213 563.546 375.105 564.011 374.383C564.476 373.66 565.185 373.299 566.138 373.299C567.068 373.299 567.773 373.676 568.254 374.43C568.738 375.184 568.98 376.275 568.98 377.705ZM564.298 377.705C564.298 378.951 564.445 379.859 564.738 380.43C565.031 380.996 565.498 381.279 566.138 381.279C566.787 381.279 567.255 380.992 567.545 380.418C567.837 379.84 567.984 378.936 567.984 377.705C567.984 376.475 567.837 375.574 567.545 375.004C567.255 374.43 566.787 374.143 566.138 374.143C565.498 374.143 565.031 374.426 564.738 374.992C564.445 375.555 564.298 376.459 564.298 377.705ZM573.005 373.311C573.787 373.311 574.406 373.492 574.863 373.855C575.32 374.219 575.548 374.721 575.548 375.361C575.548 375.783 575.418 376.168 575.156 376.516C574.894 376.863 574.476 377.18 573.902 377.465C574.597 377.797 575.091 378.146 575.384 378.514C575.677 378.877 575.824 379.299 575.824 379.779C575.824 380.49 575.576 381.059 575.08 381.484C574.584 381.906 573.904 382.117 573.041 382.117C572.127 382.117 571.423 381.918 570.931 381.52C570.439 381.117 570.193 380.549 570.193 379.814C570.193 378.834 570.791 378.07 571.986 377.523C571.447 377.219 571.06 376.891 570.826 376.539C570.591 376.184 570.474 375.787 570.474 375.35C570.474 374.729 570.703 374.234 571.16 373.867C571.621 373.496 572.236 373.311 573.005 373.311ZM571.154 379.838C571.154 380.307 571.316 380.672 571.64 380.934C571.968 381.195 572.427 381.326 573.017 381.326C573.599 381.326 574.052 381.189 574.377 380.916C574.701 380.643 574.863 380.268 574.863 379.791C574.863 379.412 574.711 379.076 574.406 378.783C574.101 378.486 573.57 378.199 572.812 377.922C572.23 378.172 571.808 378.449 571.546 378.754C571.285 379.055 571.154 379.416 571.154 379.838ZM572.994 374.102C572.505 374.102 572.123 374.219 571.845 374.453C571.568 374.688 571.429 375 571.429 375.391C571.429 375.75 571.545 376.059 571.775 376.316C572.005 376.574 572.431 376.832 573.052 377.09C573.611 376.855 574.005 376.604 574.236 376.334C574.47 376.064 574.587 375.75 574.587 375.391C574.587 374.996 574.445 374.684 574.16 374.453C573.879 374.219 573.49 374.102 572.994 374.102ZM580.734 373.434L577.541 382H576.568L579.761 373.434H580.734ZM587.074 382H581.443V381.162L583.699 378.895C584.386 378.199 584.839 377.703 585.058 377.406C585.277 377.109 585.441 376.82 585.55 376.539C585.66 376.258 585.714 375.955 585.714 375.631C585.714 375.174 585.576 374.812 585.298 374.547C585.021 374.277 584.636 374.143 584.144 374.143C583.789 374.143 583.451 374.201 583.13 374.318C582.814 374.436 582.461 374.648 582.07 374.957L581.554 374.295C582.343 373.639 583.203 373.311 584.132 373.311C584.937 373.311 585.568 373.518 586.025 373.932C586.482 374.342 586.711 374.895 586.711 375.59C586.711 376.133 586.558 376.67 586.254 377.201C585.949 377.732 585.379 378.404 584.543 379.217L582.668 381.051V381.098H587.074V382ZM594.345 380.031H593.074V382H592.142V380.031H587.976V379.182L592.043 373.387H593.074V379.146H594.345V380.031ZM592.142 379.146V376.299C592.142 375.74 592.162 375.109 592.201 374.406H592.154C591.966 374.781 591.791 375.092 591.627 375.338L588.949 379.146H592.142Z" fill="black" fill-opacity="0.7"/>
<path d="M636.731 360V366" stroke="#D3D3D4"/>
<path d="M627.057 377.705C627.057 379.186 626.823 380.291 626.354 381.021C625.889 381.752 625.176 382.117 624.215 382.117C623.293 382.117 622.592 381.744 622.112 380.998C621.631 380.248 621.391 379.15 621.391 377.705C621.391 376.213 621.623 375.105 622.088 374.383C622.553 373.66 623.262 373.299 624.215 373.299C625.145 373.299 625.85 373.676 626.33 374.43C626.815 375.184 627.057 376.275 627.057 377.705ZM622.375 377.705C622.375 378.951 622.522 379.859 622.815 380.43C623.108 380.996 623.575 381.279 624.215 381.279C624.864 381.279 625.332 380.992 625.621 380.418C625.914 379.84 626.061 378.936 626.061 377.705C626.061 376.475 625.914 375.574 625.621 375.004C625.332 374.43 624.864 374.143 624.215 374.143C623.575 374.143 623.108 374.426 622.815 374.992C622.522 375.555 622.375 376.459 622.375 377.705ZM633.877 377.09C633.877 380.441 632.58 382.117 629.987 382.117C629.534 382.117 629.174 382.078 628.909 382V381.162C629.221 381.264 629.577 381.314 629.975 381.314C630.912 381.314 631.62 381.025 632.096 380.447C632.577 379.865 632.838 378.975 632.881 377.775H632.811C632.596 378.1 632.311 378.348 631.955 378.52C631.6 378.688 631.2 378.771 630.754 378.771C629.996 378.771 629.395 378.545 628.95 378.092C628.504 377.639 628.282 377.006 628.282 376.193C628.282 375.303 628.53 374.6 629.026 374.084C629.526 373.568 630.182 373.311 630.995 373.311C631.577 373.311 632.084 373.461 632.518 373.762C632.955 374.059 633.291 374.494 633.526 375.068C633.76 375.639 633.877 376.312 633.877 377.09ZM630.995 374.143C630.436 374.143 630.004 374.322 629.7 374.682C629.395 375.041 629.243 375.541 629.243 376.182C629.243 376.744 629.383 377.188 629.664 377.512C629.946 377.832 630.373 377.992 630.948 377.992C631.303 377.992 631.629 377.92 631.926 377.775C632.227 377.631 632.463 377.434 632.635 377.184C632.807 376.934 632.893 376.672 632.893 376.398C632.893 375.988 632.813 375.609 632.653 375.262C632.493 374.914 632.268 374.641 631.979 374.441C631.694 374.242 631.366 374.143 630.995 374.143ZM638.811 373.434L635.618 382H634.645L637.838 373.434H638.811ZM645.151 382H639.52V381.162L641.776 378.895C642.463 378.199 642.916 377.703 643.135 377.406C643.354 377.109 643.518 376.82 643.627 376.539C643.737 376.258 643.791 375.955 643.791 375.631C643.791 375.174 643.653 374.812 643.375 374.547C643.098 374.277 642.713 374.143 642.221 374.143C641.866 374.143 641.528 374.201 641.207 374.318C640.891 374.436 640.537 374.648 640.147 374.957L639.631 374.295C640.42 373.639 641.28 373.311 642.209 373.311C643.014 373.311 643.645 373.518 644.102 373.932C644.559 374.342 644.787 374.895 644.787 375.59C644.787 376.133 644.635 376.67 644.33 377.201C644.026 377.732 643.455 378.404 642.62 379.217L640.745 381.051V381.098H645.151V382ZM652.422 380.031H651.151V382H650.219V380.031H646.053V379.182L650.12 373.387H651.151V379.146H652.422V380.031ZM650.219 379.146V376.299C650.219 375.74 650.239 375.109 650.278 374.406H650.231C650.043 374.781 649.868 375.092 649.703 375.338L647.026 379.146H650.219Z" fill="black" fill-opacity="0.7"/>
<path d="M694.808 360V366" stroke="#D3D3D4"/>
<path d="M683.06 382H682.11V375.895C682.11 375.387 682.126 374.906 682.157 374.453C682.075 374.535 681.984 374.621 681.882 374.711C681.78 374.801 681.316 375.182 680.487 375.854L679.972 375.186L682.239 373.434H683.06V382ZM692.001 377.705C692.001 379.186 691.767 380.291 691.298 381.021C690.833 381.752 690.12 382.117 689.159 382.117C688.237 382.117 687.536 381.744 687.056 380.998C686.575 380.248 686.335 379.15 686.335 377.705C686.335 376.213 686.568 375.105 687.032 374.383C687.497 373.66 688.206 373.299 689.159 373.299C690.089 373.299 690.794 373.676 691.275 374.43C691.759 375.184 692.001 376.275 692.001 377.705ZM687.319 377.705C687.319 378.951 687.466 379.859 687.759 380.43C688.052 380.996 688.519 381.279 689.159 381.279C689.808 381.279 690.277 380.992 690.566 380.418C690.859 379.84 691.005 378.936 691.005 377.705C691.005 376.475 690.859 375.574 690.566 375.004C690.277 374.43 689.808 374.143 689.159 374.143C688.519 374.143 688.052 374.426 687.759 374.992C687.466 375.555 687.319 376.459 687.319 377.705ZM696.888 373.434L693.694 382H692.722L695.915 373.434H696.888ZM703.228 382H697.597V381.162L699.853 378.895C700.54 378.199 700.993 377.703 701.212 377.406C701.431 377.109 701.595 376.82 701.704 376.539C701.814 376.258 701.868 375.955 701.868 375.631C701.868 375.174 701.73 374.812 701.452 374.547C701.175 374.277 700.79 374.143 700.298 374.143C699.943 374.143 699.605 374.201 699.284 374.318C698.968 374.436 698.614 374.648 698.224 374.957L697.708 374.295C698.497 373.639 699.357 373.311 700.286 373.311C701.091 373.311 701.722 373.518 702.179 373.932C702.636 374.342 702.864 374.895 702.864 375.59C702.864 376.133 702.712 376.67 702.407 377.201C702.103 377.732 701.532 378.404 700.696 379.217L698.821 381.051V381.098H703.228V382ZM710.499 380.031H709.228V382H708.296V380.031H704.13V379.182L708.196 373.387H709.228V379.146H710.499V380.031ZM708.296 379.146V376.299C708.296 375.74 708.316 375.109 708.355 374.406H708.308C708.12 374.781 707.944 375.092 707.78 375.338L705.103 379.146H708.296Z" fill="black" fill-opacity="0.7"/>
<path d="M752.885 360V366" stroke="#D3D3D4"/>
<path d="M741.137 382H740.187V375.895C740.187 375.387 740.203 374.906 740.234 374.453C740.152 374.535 740.06 374.621 739.959 374.711C739.857 374.801 739.392 375.182 738.564 375.854L738.049 375.186L740.316 373.434H741.137V382ZM748.004 382H747.055V375.895C747.055 375.387 747.07 374.906 747.101 374.453C747.019 374.535 746.928 374.621 746.826 374.711C746.725 374.801 746.26 375.182 745.432 375.854L744.916 375.186L747.183 373.434H748.004V382ZM754.965 373.434L751.771 382H750.799L753.992 373.434H754.965ZM761.305 382H755.674V381.162L757.93 378.895C758.617 378.199 759.07 377.703 759.289 377.406C759.508 377.109 759.672 376.82 759.781 376.539C759.891 376.258 759.945 375.955 759.945 375.631C759.945 375.174 759.807 374.812 759.529 374.547C759.252 374.277 758.867 374.143 758.375 374.143C758.019 374.143 757.682 374.201 757.361 374.318C757.045 374.436 756.691 374.648 756.301 374.957L755.785 374.295C756.574 373.639 757.433 373.311 758.363 373.311C759.168 373.311 759.799 373.518 760.256 373.932C760.713 374.342 760.941 374.895 760.941 375.59C760.941 376.133 760.789 376.67 760.484 377.201C760.18 377.732 759.609 378.404 758.773 379.217L756.898 381.051V381.098H761.305V382ZM768.576 380.031H767.305V382H766.373V380.031H762.207V379.182L766.273 373.387H767.305V379.146H768.576V380.031ZM766.373 379.146V376.299C766.373 375.74 766.392 375.109 766.432 374.406H766.385C766.197 374.781 766.021 375.092 765.857 375.338L763.18 379.146H766.373Z" fill="black" fill-opacity="0.7"/>
<path d="M810.962 360V366" stroke="#D3D3D4"/>
<path d="M799.214 382H798.264V375.895C798.264 375.387 798.28 374.906 798.311 374.453C798.229 374.535 798.137 374.621 798.036 374.711C797.934 374.801 797.469 375.182 796.641 375.854L796.126 375.186L798.393 373.434H799.214V382ZM808.108 382H802.477V381.162L804.733 378.895C805.421 378.199 805.874 377.703 806.092 377.406C806.311 377.109 806.475 376.82 806.585 376.539C806.694 376.258 806.749 375.955 806.749 375.631C806.749 375.174 806.61 374.812 806.333 374.547C806.055 374.277 805.671 374.143 805.178 374.143C804.823 374.143 804.485 374.201 804.165 374.318C803.848 374.436 803.495 374.648 803.104 374.957L802.589 374.295C803.378 373.639 804.237 373.311 805.167 373.311C805.971 373.311 806.602 373.518 807.059 373.932C807.516 374.342 807.745 374.895 807.745 375.59C807.745 376.133 807.592 376.67 807.288 377.201C806.983 377.732 806.413 378.404 805.577 379.217L803.702 381.051V381.098H808.108V382ZM813.042 373.434L809.848 382H808.876L812.069 373.434H813.042ZM819.381 382H813.751V381.162L816.006 378.895C816.694 378.199 817.147 377.703 817.366 377.406C817.585 377.109 817.749 376.82 817.858 376.539C817.967 376.258 818.022 375.955 818.022 375.631C818.022 375.174 817.883 374.812 817.606 374.547C817.329 374.277 816.944 374.143 816.452 374.143C816.096 374.143 815.758 374.201 815.438 374.318C815.122 374.436 814.768 374.648 814.378 374.957L813.862 374.295C814.651 373.639 815.51 373.311 816.44 373.311C817.245 373.311 817.876 373.518 818.333 373.932C818.79 374.342 819.018 374.895 819.018 375.59C819.018 376.133 818.866 376.67 818.561 377.201C818.256 377.732 817.686 378.404 816.85 379.217L814.975 381.051V381.098H819.381V382ZM826.653 380.031H825.381V382H824.45V380.031H820.284V379.182L824.35 373.387H825.381V379.146H826.653V380.031ZM824.45 379.146V376.299C824.45 375.74 824.469 375.109 824.508 374.406H824.462C824.274 374.781 824.098 375.092 823.934 375.338L821.256 379.146H824.45Z" fill="black" fill-opacity="0.7"/>
<path d="M840 76L777 91.8072L714.778 79.3632L651.778 85.0807L590.333 109.969H526.556L462 151" stroke="#9C4FFF" stroke-width="3" stroke-dasharray="6 6"/>
<path d="M107.59 354.222L84 351.843V360H462V152L438.41 158.797L408.159 216.915L378.74 226.431L361.255 264.157L329.062 275.373L312.41 308.34L264.674 332.81L227.485 305.281L171.978 332.81L138.674 323.294L107.59 354.222Z" fill="url(#paint0_linear_1_1379)"/>
<path d="M84 351.624L107.59 354L138.674 323.106L171.978 332.612L227.485 305.113L264.674 332.612L312.41 308.168L329.062 275.237L361.256 264.034L378.74 226.35L408.159 216.844L438.41 158.79L462 152" stroke="#1873EB" stroke-width="3"/>
<path d="M462 359.5V75.5" stroke="#4D4D4D" stroke-dasharray="6 6"/>
<defs>
<linearGradient id="paint0_linear_1_1379" x1="273" y1="152" x2="273" y2="360" gradientUnits="userSpaceOnUse">
<stop stop-color="#1873EB" stop-opacity="0.35"/>
<stop offset="1" stop-color="#1873EB" stop-opacity="0"/>
</linearGradient>
<clipPath id="clip0_1_1379">
<rect width="103" height="24" fill="white" transform="translate(611 30)"/>
</clipPath>
<clipPath id="clip1_1_1379">
<rect width="110" height="24" fill="white" transform="translate(730 30)"/>
</clipPath>
</defs>
</svg>
