<svg width="18.167267" height="18.167480" viewBox="0 0 18.1673 18.1675" fill="none" xmlns="http://www.w3.org/2000/svg" xmlns:xlink="http://www.w3.org/1999/xlink">
	<desc>
			Created with Pixso.
	</desc>
	<defs/>
	<path id="Ellipse 3 (Stroke)" d="M7.5 13C10.53 13 13 10.53 13 7.5C13 4.46 10.53 2 7.5 2C4.46 2 2 4.46 2 7.5C2 10.53 4.46 13 7.5 13ZM7.5 15C11.64 15 15 11.64 15 7.5C15 3.35 11.64 0 7.5 0C3.35 0 0 3.35 0 7.5C0 11.64 3.35 15 7.5 15Z" fill="#000000" fill-opacity="1.000000" fill-rule="evenodd"/>
	<path id="Vector 10 (Stroke)" d="M17.31 18.02C17.11 18.21 16.8 18.21 16.6 18.02L12.02 13.43C11.82 13.24 11.82 12.92 12.02 12.72L12.72 12.02C12.92 11.82 13.24 11.82 13.43 12.02L18.02 16.6C18.21 16.8 18.21 17.11 18.02 17.31L17.31 18.02Z" fill="#000000" fill-opacity="1.000000" fill-rule="evenodd"/>
</svg>
