<svg width="18.000000" height="18.000000" viewBox="0 0 18 18" fill="none" xmlns="http://www.w3.org/2000/svg" xmlns:xlink="http://www.w3.org/1999/xlink">
	<desc>
			Created with Pixso.
	</desc>
	<defs/>
	<path id="Ellipse 3 (Stroke)" d="M9 16C12.86 16 16 12.86 16 9C16 5.13 12.86 2 9 2C5.13 2 2 5.13 2 9C2 12.86 5.13 16 9 16ZM9 18C13.97 18 18 13.97 18 9C18 4.02 13.97 0 9 0C4.02 0 0 4.02 0 9C0 13.97 4.02 18 9 18Z" fill="#000000" fill-opacity="1.000000" fill-rule="evenodd"/>
	<path id="Ellipse 4 (Stroke)" d="M10.39 14.46C11.04 13.17 11.5 11.24 11.5 9C11.5 6.75 11.04 4.82 10.39 3.53C9.68 2.11 9.07 2 9 2C8.92 2 8.31 2.11 7.6 3.53C6.95 4.82 6.5 6.75 6.5 9C6.5 11.24 6.95 13.17 7.6 14.46C8.31 15.88 8.92 16 9 16C9.07 16 9.68 15.88 10.39 14.46ZM9 18C11.48 18 13.5 13.97 13.5 9C13.5 4.02 11.48 0 9 0C6.51 0 4.5 4.02 4.5 9C4.5 13.97 6.51 18 9 18Z" fill="#000000" fill-opacity="1.000000" fill-rule="evenodd"/>
	<path id="Vector 10 (Stroke)" d="M17.25 10L0.75 10L0.75 8L17.25 8L17.25 10Z" fill="#000000" fill-opacity="1.000000" fill-rule="evenodd"/>
</svg>
