<svg width="129.987762" height="42.868164" viewBox="0 0 129.988 42.8682" fill="none" xmlns="http://www.w3.org/2000/svg" xmlns:xlink="http://www.w3.org/1999/xlink">
	<desc>
			Created with Pixso.
	</desc>
	<defs/>
	<path id="Vector" d="M63.88 42.35L63.88 24.33L68.87 24.33L68.87 42.37L63.88 42.37L63.88 42.35Z" fill="#71B219" fill-opacity="1.000000" fill-rule="nonzero"/>
	<path id="Vector" d="M72.76 33.35C72.76 32.1 73 30.85 73.51 29.7C73.99 28.58 74.68 27.57 75.54 26.71C76.42 25.85 77.48 25.16 78.63 24.7C81.1 23.71 83.86 23.71 86.33 24.7C87.47 25.16 88.51 25.84 89.4 26.69C90.25 27.54 90.93 28.56 91.4 29.68C91.89 30.83 92.14 32.08 92.14 33.35C92.15 34.6 91.89 35.85 91.4 36.99C90.92 38.11 90.23 39.13 89.37 39.99C88.49 40.84 87.43 41.52 86.29 41.98C83.43 43.12 80.21 42.93 77.49 41.46C74.54 39.84 72.72 36.72 72.76 33.35ZM77.88 33.35C77.85 34.62 78.32 35.85 79.19 36.78C80.02 37.72 81.23 38.25 82.49 38.22C83.85 38.22 84.95 37.75 85.8 36.8C87.51 34.82 87.5 31.86 85.77 29.9C84.92 28.95 83.72 28.43 82.44 28.46C81.19 28.43 79.98 28.95 79.15 29.88C78.29 30.83 77.84 32.07 77.88 33.35Z" fill="#71B219" fill-opacity="1.000000" fill-rule="nonzero"/>
	<path id="Vector" d="M96.44 42.35L96.44 24.33L101.11 24.33L108.51 33.87L108.51 24.33L113.45 24.33L113.45 42.37L109.08 42.37L101.38 32.49L101.38 42.37L96.44 42.37L96.44 42.35Z" fill="#71B219" fill-opacity="1.000000" fill-rule="nonzero"/>
	<path id="Vector" d="M31.34 30.89L31.34 34.57C31.34 35.82 31.04 36.76 30.45 37.38C29.87 38.01 29.04 38.32 27.98 38.32C26.93 38.32 26.11 37.99 25.53 37.34C24.93 36.69 24.64 35.73 24.64 34.45L24.64 24.33L19.55 24.33L19.55 34.54C19.55 37.33 20.29 39.41 21.76 40.79C23.23 42.17 25.29 42.86 27.95 42.86C29.13 42.88 30.32 42.71 31.46 42.35C32.44 42.04 33.35 41.53 34.13 40.84C34.91 40.12 35.51 39.22 35.85 38.2C36.27 36.98 36.47 35.7 36.45 34.4L36.45 30.87L31.34 30.89Z" fill="#71B219" fill-opacity="1.000000" fill-rule="nonzero"/>
	<path id="Vector" d="M31.31 24.33L36.4 24.33L36.4 29.41L31.31 29.41L31.31 24.33Z" fill="#539100" fill-opacity="1.000000" fill-rule="evenodd"/>
	<path id="Vector" d="M6.57 0.28L6.57 4.73L6.57 18.54L11.62 18.54L11.62 4.73L17.1 4.73L17.1 0.28L6.57 0.28Z" fill="#71B219" fill-opacity="1.000000" fill-rule="nonzero"/>
	<path id="Vector" d="M0 0.28L5.09 0.28L5.09 5.38L0 5.38L0 0.28Z" fill="#539100" fill-opacity="1.000000" fill-rule="evenodd"/>
	<path id="Vector" d="M41.48 42.35L41.48 24.33L46.15 24.33L53.54 33.87L53.54 24.33L58.47 24.33L58.47 42.37L54.11 42.37L46.42 32.49L46.42 42.37L41.48 42.37L41.48 42.35Z" fill="#71B219" fill-opacity="1.000000" fill-rule="nonzero"/>
	<path id="Vector" d="M19.03 18.32L19.03 0.14L27.59 0.14C30.23 0.14 32.2 0.79 33.5 2.1C34.56 3.18 35.09 4.63 35.09 6.44C35.09 7.77 34.77 8.9 34.12 9.82C33.43 10.77 32.48 11.52 31.39 11.96L35.72 18.32L29.92 18.32L26.26 12.8L24.06 12.8L24.06 18.34L19.03 18.32ZM24.06 8.87L27.39 8.87C28.24 8.87 28.91 8.68 29.38 8.29C29.86 7.9 30.12 7.3 30.09 6.69C30.09 6 29.86 5.46 29.38 5.11C28.89 4.75 28.23 4.56 27.37 4.56L24.06 4.56L24.06 8.87Z" fill="#71B219" fill-opacity="1.000000" fill-rule="nonzero"/>
	<path id="Vector" d="M36.54 18.32L44.21 0.15L49.02 0.15L56.69 18.32L51.33 18.32L50.02 15.11L43.09 15.11L41.8 18.32L36.54 18.32ZM44.55 11.22L48.59 11.22L46.57 6.09L44.55 11.22Z" fill="#71B219" fill-opacity="1.000000" fill-rule="nonzero"/>
	<path id="Vector" d="M58.9 18.32L58.9 0.28L65.85 0.28C67.31 0.26 68.76 0.49 70.14 0.95C71.33 1.34 72.42 1.96 73.34 2.79C74.2 3.59 74.86 4.56 75.32 5.63C75.79 6.78 76.02 8.01 76.01 9.26C76.02 10.5 75.79 11.72 75.3 12.87C74.85 13.95 74.17 14.94 73.32 15.73C72.38 16.58 71.27 17.23 70.08 17.63C68.69 18.1 67.22 18.34 65.75 18.32L58.9 18.32ZM63.89 13.94L65.92 13.94C67.44 13.94 68.64 13.53 69.53 12.71C70.43 11.91 70.87 10.76 70.87 9.29C70.87 7.86 70.42 6.72 69.52 5.9C68.62 5.08 67.41 4.67 65.91 4.67L63.88 4.67L63.88 13.94L63.89 13.94Z" fill="#71B219" fill-opacity="1.000000" fill-rule="nonzero"/>
	<path id="Vector" d="M79.04 18.32L79.04 0.28L93.52 0.28L93.52 4.54L83.98 4.54L83.98 7.27L92.62 7.27L92.62 11.22L83.98 11.22L83.98 14.07L93.65 14.07L93.65 18.32L79.04 18.32Z" fill="#71B219" fill-opacity="1.000000" fill-rule="nonzero"/>
	<path id="Vector" d="M96.61 18.39L96.61 0.23L105.17 0.23C107.8 0.23 109.77 0.88 111.05 2.2C112.12 3.28 112.65 4.72 112.65 6.53C112.65 7.86 112.33 8.99 111.68 9.91C110.99 10.86 110.04 11.61 108.95 12.05L113.28 18.4L107.48 18.4L103.83 12.88L101.63 12.88L101.63 18.4L96.61 18.39ZM101.63 8.95L104.94 8.95C105.8 8.95 106.45 8.76 106.93 8.37C107.41 7.97 107.67 7.38 107.64 6.76C107.64 6.07 107.4 5.54 106.92 5.19C106.44 4.82 105.78 4.64 104.92 4.64L101.63 4.64L101.63 8.95Z" fill="#71B219" fill-opacity="1.000000" fill-rule="nonzero"/>
	<path id="Vector" d="M114.27 15.64L117.05 12.32C118.85 13.77 120.8 14.48 122.9 14.48C123.56 14.48 124.07 14.37 124.42 14.15C124.76 13.95 124.96 13.57 124.94 13.18C124.94 12.79 124.73 12.48 124.31 12.24C123.9 12 123.11 11.74 121.91 11.46C121.3 11.32 120.77 11.19 120.32 11.07C119.87 10.96 119.4 10.8 118.89 10.62C118.45 10.46 118.01 10.27 117.61 10.04C117.24 9.84 116.89 9.59 116.57 9.32C116.25 9.06 115.98 8.74 115.76 8.39C115.54 8.03 115.38 7.64 115.28 7.23C115.15 6.75 115.1 6.27 115.1 5.77C115.06 4.17 115.75 2.64 117 1.61C118.26 0.54 119.96 0 122.09 0C125.04 0 127.51 0.79 129.5 2.39L126.99 5.92C125.32 4.73 123.63 4.15 121.96 4.15C121.38 4.15 120.93 4.27 120.62 4.49C120.32 4.68 120.15 5.01 120.15 5.36C120.15 5.77 120.4 6.15 120.78 6.33C121.19 6.57 122.03 6.83 123.26 7.12C124.21 7.31 125.16 7.58 126.07 7.91C126.81 8.18 127.51 8.55 128.15 9C128.73 9.41 129.22 9.95 129.53 10.59C129.84 11.28 130 12.04 129.98 12.79C129.98 14.61 129.32 16.05 127.99 17.1C126.67 18.15 124.9 18.68 122.69 18.68C121.12 18.69 119.56 18.43 118.06 17.92C116.67 17.4 115.37 16.63 114.27 15.64Z" fill="#71B219" fill-opacity="1.000000" fill-rule="nonzero"/>
</svg>
